<?xml version="1.0" encoding="utf-8" standalone="no"?>
<!DOCTYPE svg PUBLIC "-//W3C//DTD SVG 1.1//EN"
  "http://www.w3.org/Graphics/SVG/1.1/DTD/svg11.dtd">
<!-- Created with matplotlib (https://matplotlib.org/) -->
<svg height="345.6pt" version="1.1" viewBox="0 0 460.8 345.6" width="460.8pt" xmlns="http://www.w3.org/2000/svg" xmlns:xlink="http://www.w3.org/1999/xlink">
 <defs>
  <style type="text/css">
*{stroke-linecap:butt;stroke-linejoin:round;}
  </style>
 </defs>
 <g id="figure_1">
  <g id="patch_1">
   <path d="M 0 345.6 
L 460.8 345.6 
L 460.8 0 
L 0 0 
z
" style="fill:#ffffff;"/>
  </g>
  <g id="axes_1">
   <g id="patch_2">
    <path d="M 130.46875 303.64 
L 447.48 303.64 
L 447.48 24 
L 130.46875 24 
z
" style="fill:#ffffff;"/>
   </g>
   <g id="patch_3">
    <path clip-path="url(#p8543bfff39)" d="M 130.46875 290.929091 
L 176.980053 290.929091 
L 176.980053 284.533665 
L 130.46875 284.533665 
z
" style="fill:#1f77b4;opacity:0.5;"/>
   </g>
   <g id="patch_4">
    <path clip-path="url(#p8543bfff39)" d="M 130.46875 282.934808 
L 177.796041 282.934808 
L 177.796041 276.539383 
L 130.46875 276.539383 
z
" style="fill:#1f77b4;opacity:0.5;"/>
   </g>
   <g id="patch_5">
    <path clip-path="url(#p8543bfff39)" d="M 130.46875 274.940526 
L 199.011723 274.940526 
L 199.011723 268.5451 
L 130.46875 268.5451 
z
" style="fill:#1f77b4;opacity:0.5;"/>
   </g>
   <g id="patch_6">
    <path clip-path="url(#p8543bfff39)" d="M 130.46875 266.946244 
L 203.091662 266.946244 
L 203.091662 260.550818 
L 130.46875 260.550818 
z
" style="fill:#1f77b4;opacity:0.5;"/>
   </g>
   <g id="patch_7">
    <path clip-path="url(#p8543bfff39)" d="M 130.46875 258.951961 
L 221.043393 258.951961 
L 221.043393 252.556535 
L 130.46875 252.556535 
z
" style="fill:#1f77b4;opacity:0.5;"/>
   </g>
   <g id="patch_8">
    <path clip-path="url(#p8543bfff39)" d="M 130.46875 250.957679 
L 231.651234 250.957679 
L 231.651234 244.562253 
L 130.46875 244.562253 
z
" style="fill:#1f77b4;opacity:0.5;"/>
   </g>
   <g id="patch_9">
    <path clip-path="url(#p8543bfff39)" d="M 130.46875 242.963396 
L 232.467222 242.963396 
L 232.467222 236.56797 
L 130.46875 236.56797 
z
" style="fill:#1f77b4;opacity:0.5;"/>
   </g>
   <g id="patch_10">
    <path clip-path="url(#p8543bfff39)" d="M 130.46875 234.969114 
L 252.866916 234.969114 
L 252.866916 228.573688 
L 130.46875 228.573688 
z
" style="fill:#1f77b4;opacity:0.5;"/>
   </g>
   <g id="patch_11">
    <path clip-path="url(#p8543bfff39)" d="M 130.46875 226.974831 
L 255.314879 226.974831 
L 255.314879 220.579405 
L 130.46875 220.579405 
z
" style="fill:#1f77b4;opacity:0.5;"/>
   </g>
   <g id="patch_12">
    <path clip-path="url(#p8543bfff39)" d="M 130.46875 218.980549 
L 255.314879 218.980549 
L 255.314879 212.585123 
L 130.46875 212.585123 
z
" style="fill:#1f77b4;opacity:0.5;"/>
   </g>
   <g id="patch_13">
    <path clip-path="url(#p8543bfff39)" d="M 130.46875 210.986266 
L 283.058464 210.986266 
L 283.058464 204.59084 
L 130.46875 204.59084 
z
" style="fill:#1f77b4;opacity:0.5;"/>
   </g>
   <g id="patch_14">
    <path clip-path="url(#p8543bfff39)" d="M 130.46875 202.991984 
L 296.930256 202.991984 
L 296.930256 196.596558 
L 130.46875 196.596558 
z
" style="fill:#1f77b4;opacity:0.5;"/>
   </g>
   <g id="patch_15">
    <path clip-path="url(#p8543bfff39)" d="M 130.46875 194.997702 
L 305.906121 194.997702 
L 305.906121 188.602276 
L 130.46875 188.602276 
z
" style="fill:#1f77b4;opacity:0.5;"/>
   </g>
   <g id="patch_16">
    <path clip-path="url(#p8543bfff39)" d="M 130.46875 187.003419 
L 309.98606 187.003419 
L 309.98606 180.607993 
L 130.46875 180.607993 
z
" style="fill:#1f77b4;opacity:0.5;"/>
   </g>
   <g id="patch_17">
    <path clip-path="url(#p8543bfff39)" d="M 130.46875 179.009137 
L 314.881987 179.009137 
L 314.881987 172.613711 
L 130.46875 172.613711 
z
" style="fill:#1f77b4;opacity:0.5;"/>
   </g>
   <g id="patch_18">
    <path clip-path="url(#p8543bfff39)" d="M 130.46875 171.014854 
L 321.409889 171.014854 
L 321.409889 164.619428 
L 130.46875 164.619428 
z
" style="fill:#1f77b4;opacity:0.5;"/>
   </g>
   <g id="patch_19">
    <path clip-path="url(#p8543bfff39)" d="M 130.46875 163.020572 
L 324.67384 163.020572 
L 324.67384 156.625146 
L 130.46875 156.625146 
z
" style="fill:#1f77b4;opacity:0.5;"/>
   </g>
   <g id="patch_20">
    <path clip-path="url(#p8543bfff39)" d="M 130.46875 155.026289 
L 325.489828 155.026289 
L 325.489828 148.630863 
L 130.46875 148.630863 
z
" style="fill:#1f77b4;opacity:0.5;"/>
   </g>
   <g id="patch_21">
    <path clip-path="url(#p8543bfff39)" d="M 130.46875 147.032007 
L 326.305816 147.032007 
L 326.305816 140.636581 
L 130.46875 140.636581 
z
" style="fill:#1f77b4;opacity:0.5;"/>
   </g>
   <g id="patch_22">
    <path clip-path="url(#p8543bfff39)" d="M 130.46875 139.037724 
L 328.753779 139.037724 
L 328.753779 132.642298 
L 130.46875 132.642298 
z
" style="fill:#1f77b4;opacity:0.5;"/>
   </g>
   <g id="patch_23">
    <path clip-path="url(#p8543bfff39)" d="M 130.46875 131.043442 
L 340.993596 131.043442 
L 340.993596 124.648016 
L 130.46875 124.648016 
z
" style="fill:#1f77b4;opacity:0.5;"/>
   </g>
   <g id="patch_24">
    <path clip-path="url(#p8543bfff39)" d="M 130.46875 123.04916 
L 345.889522 123.04916 
L 345.889522 116.653734 
L 130.46875 116.653734 
z
" style="fill:#1f77b4;opacity:0.5;"/>
   </g>
   <g id="patch_25">
    <path clip-path="url(#p8543bfff39)" d="M 130.46875 115.054877 
L 366.289217 115.054877 
L 366.289217 108.659451 
L 130.46875 108.659451 
z
" style="fill:#1f77b4;opacity:0.5;"/>
   </g>
   <g id="patch_26">
    <path clip-path="url(#p8543bfff39)" d="M 130.46875 107.060595 
L 371.185143 107.060595 
L 371.185143 100.665169 
L 130.46875 100.665169 
z
" style="fill:#1f77b4;opacity:0.5;"/>
   </g>
   <g id="patch_27">
    <path clip-path="url(#p8543bfff39)" d="M 130.46875 99.066312 
L 383.42496 99.066312 
L 383.42496 92.670886 
L 130.46875 92.670886 
z
" style="fill:#1f77b4;opacity:0.5;"/>
   </g>
   <g id="patch_28">
    <path clip-path="url(#p8543bfff39)" d="M 130.46875 91.07203 
L 383.42496 91.07203 
L 383.42496 84.676604 
L 130.46875 84.676604 
z
" style="fill:#1f77b4;opacity:0.5;"/>
   </g>
   <g id="patch_29">
    <path clip-path="url(#p8543bfff39)" d="M 130.46875 83.077747 
L 383.42496 83.077747 
L 383.42496 76.682321 
L 130.46875 76.682321 
z
" style="fill:#1f77b4;opacity:0.5;"/>
   </g>
   <g id="patch_30">
    <path clip-path="url(#p8543bfff39)" d="M 130.46875 75.083465 
L 387.504899 75.083465 
L 387.504899 68.688039 
L 130.46875 68.688039 
z
" style="fill:#1f77b4;opacity:0.5;"/>
   </g>
   <g id="patch_31">
    <path clip-path="url(#p8543bfff39)" d="M 130.46875 67.089182 
L 395.664776 67.089182 
L 395.664776 60.693756 
L 130.46875 60.693756 
z
" style="fill:#1f77b4;opacity:0.5;"/>
   </g>
   <g id="patch_32">
    <path clip-path="url(#p8543bfff39)" d="M 130.46875 59.0949 
L 403.824654 59.0949 
L 403.824654 52.699474 
L 130.46875 52.699474 
z
" style="fill:#1f77b4;opacity:0.5;"/>
   </g>
   <g id="patch_33">
    <path clip-path="url(#p8543bfff39)" d="M 130.46875 51.100617 
L 411.984532 51.100617 
L 411.984532 44.705192 
L 130.46875 44.705192 
z
" style="fill:#1f77b4;opacity:0.5;"/>
   </g>
   <g id="patch_34">
    <path clip-path="url(#p8543bfff39)" d="M 130.46875 43.106335 
L 432.384226 43.106335 
L 432.384226 36.710909 
L 130.46875 36.710909 
z
" style="fill:#1f77b4;opacity:0.5;"/>
   </g>
   <g id="matplotlib.axis_1">
    <g id="xtick_1">
     <g id="line2d_1">
      <defs>
       <path d="M 0 0 
L 0 3.5 
" id="mf37236a2c5" style="stroke:#000000;stroke-width:0.8;"/>
      </defs>
      <g>
       <use style="stroke:#000000;stroke-width:0.8;" x="130.46875" xlink:href="#mf37236a2c5" y="303.64"/>
      </g>
     </g>
     <g id="text_1">
      <!-- 0 -->
      <defs>
       <path d="M 31.78125 66.40625 
Q 24.171875 66.40625 20.328125 58.90625 
Q 16.5 51.421875 16.5 36.375 
Q 16.5 21.390625 20.328125 13.890625 
Q 24.171875 6.390625 31.78125 6.390625 
Q 39.453125 6.390625 43.28125 13.890625 
Q 47.125 21.390625 47.125 36.375 
Q 47.125 51.421875 43.28125 58.90625 
Q 39.453125 66.40625 31.78125 66.40625 
z
M 31.78125 74.21875 
Q 44.046875 74.21875 50.515625 64.515625 
Q 56.984375 54.828125 56.984375 36.375 
Q 56.984375 17.96875 50.515625 8.265625 
Q 44.046875 -1.421875 31.78125 -1.421875 
Q 19.53125 -1.421875 13.0625 8.265625 
Q 6.59375 17.96875 6.59375 36.375 
Q 6.59375 54.828125 13.0625 64.515625 
Q 19.53125 74.21875 31.78125 74.21875 
z
" id="DejaVuSans-48"/>
      </defs>
      <g transform="translate(127.2875 318.238437)scale(0.1 -0.1)">
       <use xlink:href="#DejaVuSans-48"/>
      </g>
     </g>
    </g>
    <g id="xtick_2">
     <g id="line2d_2">
      <g>
       <use style="stroke:#000000;stroke-width:0.8;" x="171.268139" xlink:href="#mf37236a2c5" y="303.64"/>
      </g>
     </g>
     <g id="text_2">
      <!-- 50 -->
      <defs>
       <path d="M 10.796875 72.90625 
L 49.515625 72.90625 
L 49.515625 64.59375 
L 19.828125 64.59375 
L 19.828125 46.734375 
Q 21.96875 47.46875 24.109375 47.828125 
Q 26.265625 48.1875 28.421875 48.1875 
Q 40.625 48.1875 47.75 41.5 
Q 54.890625 34.8125 54.890625 23.390625 
Q 54.890625 11.625 47.5625 5.09375 
Q 40.234375 -1.421875 26.90625 -1.421875 
Q 22.3125 -1.421875 17.546875 -0.640625 
Q 12.796875 0.140625 7.71875 1.703125 
L 7.71875 11.625 
Q 12.109375 9.234375 16.796875 8.0625 
Q 21.484375 6.890625 26.703125 6.890625 
Q 35.15625 6.890625 40.078125 11.328125 
Q 45.015625 15.765625 45.015625 23.390625 
Q 45.015625 31 40.078125 35.4375 
Q 35.15625 39.890625 26.703125 39.890625 
Q 22.75 39.890625 18.8125 39.015625 
Q 14.890625 38.140625 10.796875 36.28125 
z
" id="DejaVuSans-53"/>
      </defs>
      <g transform="translate(164.905639 318.238437)scale(0.1 -0.1)">
       <use xlink:href="#DejaVuSans-53"/>
       <use x="63.623047" xlink:href="#DejaVuSans-48"/>
      </g>
     </g>
    </g>
    <g id="xtick_3">
     <g id="line2d_3">
      <g>
       <use style="stroke:#000000;stroke-width:0.8;" x="212.067527" xlink:href="#mf37236a2c5" y="303.64"/>
      </g>
     </g>
     <g id="text_3">
      <!-- 100 -->
      <defs>
       <path d="M 12.40625 8.296875 
L 28.515625 8.296875 
L 28.515625 63.921875 
L 10.984375 60.40625 
L 10.984375 69.390625 
L 28.421875 72.90625 
L 38.28125 72.90625 
L 38.28125 8.296875 
L 54.390625 8.296875 
L 54.390625 0 
L 12.40625 0 
z
" id="DejaVuSans-49"/>
      </defs>
      <g transform="translate(202.523777 318.238437)scale(0.1 -0.1)">
       <use xlink:href="#DejaVuSans-49"/>
       <use x="63.623047" xlink:href="#DejaVuSans-48"/>
       <use x="127.246094" xlink:href="#DejaVuSans-48"/>
      </g>
     </g>
    </g>
    <g id="xtick_4">
     <g id="line2d_4">
      <g>
       <use style="stroke:#000000;stroke-width:0.8;" x="252.866916" xlink:href="#mf37236a2c5" y="303.64"/>
      </g>
     </g>
     <g id="text_4">
      <!-- 150 -->
      <g transform="translate(243.323166 318.238437)scale(0.1 -0.1)">
       <use xlink:href="#DejaVuSans-49"/>
       <use x="63.623047" xlink:href="#DejaVuSans-53"/>
       <use x="127.246094" xlink:href="#DejaVuSans-48"/>
      </g>
     </g>
    </g>
    <g id="xtick_5">
     <g id="line2d_5">
      <g>
       <use style="stroke:#000000;stroke-width:0.8;" x="293.666305" xlink:href="#mf37236a2c5" y="303.64"/>
      </g>
     </g>
     <g id="text_5">
      <!-- 200 -->
      <defs>
       <path d="M 19.1875 8.296875 
L 53.609375 8.296875 
L 53.609375 0 
L 7.328125 0 
L 7.328125 8.296875 
Q 12.9375 14.109375 22.625 23.890625 
Q 32.328125 33.6875 34.8125 36.53125 
Q 39.546875 41.84375 41.421875 45.53125 
Q 43.3125 49.21875 43.3125 52.78125 
Q 43.3125 58.59375 39.234375 62.25 
Q 35.15625 65.921875 28.609375 65.921875 
Q 23.96875 65.921875 18.8125 64.3125 
Q 13.671875 62.703125 7.8125 59.421875 
L 7.8125 69.390625 
Q 13.765625 71.78125 18.9375 73 
Q 24.125 74.21875 28.421875 74.21875 
Q 39.75 74.21875 46.484375 68.546875 
Q 53.21875 62.890625 53.21875 53.421875 
Q 53.21875 48.921875 51.53125 44.890625 
Q 49.859375 40.875 45.40625 35.40625 
Q 44.1875 33.984375 37.640625 27.21875 
Q 31.109375 20.453125 19.1875 8.296875 
z
" id="DejaVuSans-50"/>
      </defs>
      <g transform="translate(284.122555 318.238437)scale(0.1 -0.1)">
       <use xlink:href="#DejaVuSans-50"/>
       <use x="63.623047" xlink:href="#DejaVuSans-48"/>
       <use x="127.246094" xlink:href="#DejaVuSans-48"/>
      </g>
     </g>
    </g>
    <g id="xtick_6">
     <g id="line2d_6">
      <g>
       <use style="stroke:#000000;stroke-width:0.8;" x="334.465693" xlink:href="#mf37236a2c5" y="303.64"/>
      </g>
     </g>
     <g id="text_6">
      <!-- 250 -->
      <g transform="translate(324.921943 318.238437)scale(0.1 -0.1)">
       <use xlink:href="#DejaVuSans-50"/>
       <use x="63.623047" xlink:href="#DejaVuSans-53"/>
       <use x="127.246094" xlink:href="#DejaVuSans-48"/>
      </g>
     </g>
    </g>
    <g id="xtick_7">
     <g id="line2d_7">
      <g>
       <use style="stroke:#000000;stroke-width:0.8;" x="375.265082" xlink:href="#mf37236a2c5" y="303.64"/>
      </g>
     </g>
     <g id="text_7">
      <!-- 300 -->
      <defs>
       <path d="M 40.578125 39.3125 
Q 47.65625 37.796875 51.625 33 
Q 55.609375 28.21875 55.609375 21.1875 
Q 55.609375 10.40625 48.1875 4.484375 
Q 40.765625 -1.421875 27.09375 -1.421875 
Q 22.515625 -1.421875 17.65625 -0.515625 
Q 12.796875 0.390625 7.625 2.203125 
L 7.625 11.71875 
Q 11.71875 9.328125 16.59375 8.109375 
Q 21.484375 6.890625 26.8125 6.890625 
Q 36.078125 6.890625 40.9375 10.546875 
Q 45.796875 14.203125 45.796875 21.1875 
Q 45.796875 27.640625 41.28125 31.265625 
Q 36.765625 34.90625 28.71875 34.90625 
L 20.21875 34.90625 
L 20.21875 43.015625 
L 29.109375 43.015625 
Q 36.375 43.015625 40.234375 45.921875 
Q 44.09375 48.828125 44.09375 54.296875 
Q 44.09375 59.90625 40.109375 62.90625 
Q 36.140625 65.921875 28.71875 65.921875 
Q 24.65625 65.921875 20.015625 65.03125 
Q 15.375 64.15625 9.8125 62.3125 
L 9.8125 71.09375 
Q 15.4375 72.65625 20.34375 73.4375 
Q 25.25 74.21875 29.59375 74.21875 
Q 40.828125 74.21875 47.359375 69.109375 
Q 53.90625 64.015625 53.90625 55.328125 
Q 53.90625 49.265625 50.4375 45.09375 
Q 46.96875 40.921875 40.578125 39.3125 
z
" id="DejaVuSans-51"/>
      </defs>
      <g transform="translate(365.721332 318.238437)scale(0.1 -0.1)">
       <use xlink:href="#DejaVuSans-51"/>
       <use x="63.623047" xlink:href="#DejaVuSans-48"/>
       <use x="127.246094" xlink:href="#DejaVuSans-48"/>
      </g>
     </g>
    </g>
    <g id="xtick_8">
     <g id="line2d_8">
      <g>
       <use style="stroke:#000000;stroke-width:0.8;" x="416.064471" xlink:href="#mf37236a2c5" y="303.64"/>
      </g>
     </g>
     <g id="text_8">
      <!-- 350 -->
      <g transform="translate(406.520721 318.238437)scale(0.1 -0.1)">
       <use xlink:href="#DejaVuSans-51"/>
       <use x="63.623047" xlink:href="#DejaVuSans-53"/>
       <use x="127.246094" xlink:href="#DejaVuSans-48"/>
      </g>
     </g>
    </g>
    <g id="text_9">
     <!-- Range (miles) -->
     <defs>
      <path d="M 44.390625 34.1875 
Q 47.5625 33.109375 50.5625 29.59375 
Q 53.5625 26.078125 56.59375 19.921875 
L 66.609375 0 
L 56 0 
L 46.6875 18.703125 
Q 43.0625 26.03125 39.671875 28.421875 
Q 36.28125 30.8125 30.421875 30.8125 
L 19.671875 30.8125 
L 19.671875 0 
L 9.8125 0 
L 9.8125 72.90625 
L 32.078125 72.90625 
Q 44.578125 72.90625 50.734375 67.671875 
Q 56.890625 62.453125 56.890625 51.90625 
Q 56.890625 45.015625 53.6875 40.46875 
Q 50.484375 35.9375 44.390625 34.1875 
z
M 19.671875 64.796875 
L 19.671875 38.921875 
L 32.078125 38.921875 
Q 39.203125 38.921875 42.84375 42.21875 
Q 46.484375 45.515625 46.484375 51.90625 
Q 46.484375 58.296875 42.84375 61.546875 
Q 39.203125 64.796875 32.078125 64.796875 
z
" id="DejaVuSans-82"/>
      <path d="M 34.28125 27.484375 
Q 23.390625 27.484375 19.1875 25 
Q 14.984375 22.515625 14.984375 16.5 
Q 14.984375 11.71875 18.140625 8.90625 
Q 21.296875 6.109375 26.703125 6.109375 
Q 34.1875 6.109375 38.703125 11.40625 
Q 43.21875 16.703125 43.21875 25.484375 
L 43.21875 27.484375 
z
M 52.203125 31.203125 
L 52.203125 0 
L 43.21875 0 
L 43.21875 8.296875 
Q 40.140625 3.328125 35.546875 0.953125 
Q 30.953125 -1.421875 24.3125 -1.421875 
Q 15.921875 -1.421875 10.953125 3.296875 
Q 6 8.015625 6 15.921875 
Q 6 25.140625 12.171875 29.828125 
Q 18.359375 34.515625 30.609375 34.515625 
L 43.21875 34.515625 
L 43.21875 35.40625 
Q 43.21875 41.609375 39.140625 45 
Q 35.0625 48.390625 27.6875 48.390625 
Q 23 48.390625 18.546875 47.265625 
Q 14.109375 46.140625 10.015625 43.890625 
L 10.015625 52.203125 
Q 14.9375 54.109375 19.578125 55.046875 
Q 24.21875 56 28.609375 56 
Q 40.484375 56 46.34375 49.84375 
Q 52.203125 43.703125 52.203125 31.203125 
z
" id="DejaVuSans-97"/>
      <path d="M 54.890625 33.015625 
L 54.890625 0 
L 45.90625 0 
L 45.90625 32.71875 
Q 45.90625 40.484375 42.875 44.328125 
Q 39.84375 48.1875 33.796875 48.1875 
Q 26.515625 48.1875 22.3125 43.546875 
Q 18.109375 38.921875 18.109375 30.90625 
L 18.109375 0 
L 9.078125 0 
L 9.078125 54.6875 
L 18.109375 54.6875 
L 18.109375 46.1875 
Q 21.34375 51.125 25.703125 53.5625 
Q 30.078125 56 35.796875 56 
Q 45.21875 56 50.046875 50.171875 
Q 54.890625 44.34375 54.890625 33.015625 
z
" id="DejaVuSans-110"/>
      <path d="M 45.40625 27.984375 
Q 45.40625 37.75 41.375 43.109375 
Q 37.359375 48.484375 30.078125 48.484375 
Q 22.859375 48.484375 18.828125 43.109375 
Q 14.796875 37.75 14.796875 27.984375 
Q 14.796875 18.265625 18.828125 12.890625 
Q 22.859375 7.515625 30.078125 7.515625 
Q 37.359375 7.515625 41.375 12.890625 
Q 45.40625 18.265625 45.40625 27.984375 
z
M 54.390625 6.78125 
Q 54.390625 -7.171875 48.1875 -13.984375 
Q 42 -20.796875 29.203125 -20.796875 
Q 24.46875 -20.796875 20.265625 -20.09375 
Q 16.0625 -19.390625 12.109375 -17.921875 
L 12.109375 -9.1875 
Q 16.0625 -11.328125 19.921875 -12.34375 
Q 23.78125 -13.375 27.78125 -13.375 
Q 36.625 -13.375 41.015625 -8.765625 
Q 45.40625 -4.15625 45.40625 5.171875 
L 45.40625 9.625 
Q 42.625 4.78125 38.28125 2.390625 
Q 33.9375 0 27.875 0 
Q 17.828125 0 11.671875 7.65625 
Q 5.515625 15.328125 5.515625 27.984375 
Q 5.515625 40.671875 11.671875 48.328125 
Q 17.828125 56 27.875 56 
Q 33.9375 56 38.28125 53.609375 
Q 42.625 51.21875 45.40625 46.390625 
L 45.40625 54.6875 
L 54.390625 54.6875 
z
" id="DejaVuSans-103"/>
      <path d="M 56.203125 29.59375 
L 56.203125 25.203125 
L 14.890625 25.203125 
Q 15.484375 15.921875 20.484375 11.0625 
Q 25.484375 6.203125 34.421875 6.203125 
Q 39.59375 6.203125 44.453125 7.46875 
Q 49.3125 8.734375 54.109375 11.28125 
L 54.109375 2.78125 
Q 49.265625 0.734375 44.1875 -0.34375 
Q 39.109375 -1.421875 33.890625 -1.421875 
Q 20.796875 -1.421875 13.15625 6.1875 
Q 5.515625 13.8125 5.515625 26.8125 
Q 5.515625 40.234375 12.765625 48.109375 
Q 20.015625 56 32.328125 56 
Q 43.359375 56 49.78125 48.890625 
Q 56.203125 41.796875 56.203125 29.59375 
z
M 47.21875 32.234375 
Q 47.125 39.59375 43.09375 43.984375 
Q 39.0625 48.390625 32.421875 48.390625 
Q 24.90625 48.390625 20.390625 44.140625 
Q 15.875 39.890625 15.1875 32.171875 
z
" id="DejaVuSans-101"/>
      <path id="DejaVuSans-32"/>
      <path d="M 31 75.875 
Q 24.46875 64.65625 21.28125 53.65625 
Q 18.109375 42.671875 18.109375 31.390625 
Q 18.109375 20.125 21.3125 9.0625 
Q 24.515625 -2 31 -13.1875 
L 23.1875 -13.1875 
Q 15.875 -1.703125 12.234375 9.375 
Q 8.59375 20.453125 8.59375 31.390625 
Q 8.59375 42.28125 12.203125 53.3125 
Q 15.828125 64.359375 23.1875 75.875 
z
" id="DejaVuSans-40"/>
      <path d="M 52 44.1875 
Q 55.375 50.25 60.0625 53.125 
Q 64.75 56 71.09375 56 
Q 79.640625 56 84.28125 50.015625 
Q 88.921875 44.046875 88.921875 33.015625 
L 88.921875 0 
L 79.890625 0 
L 79.890625 32.71875 
Q 79.890625 40.578125 77.09375 44.375 
Q 74.3125 48.1875 68.609375 48.1875 
Q 61.625 48.1875 57.5625 43.546875 
Q 53.515625 38.921875 53.515625 30.90625 
L 53.515625 0 
L 44.484375 0 
L 44.484375 32.71875 
Q 44.484375 40.625 41.703125 44.40625 
Q 38.921875 48.1875 33.109375 48.1875 
Q 26.21875 48.1875 22.15625 43.53125 
Q 18.109375 38.875 18.109375 30.90625 
L 18.109375 0 
L 9.078125 0 
L 9.078125 54.6875 
L 18.109375 54.6875 
L 18.109375 46.1875 
Q 21.1875 51.21875 25.484375 53.609375 
Q 29.78125 56 35.6875 56 
Q 41.65625 56 45.828125 52.96875 
Q 50 49.953125 52 44.1875 
z
" id="DejaVuSans-109"/>
      <path d="M 9.421875 54.6875 
L 18.40625 54.6875 
L 18.40625 0 
L 9.421875 0 
z
M 9.421875 75.984375 
L 18.40625 75.984375 
L 18.40625 64.59375 
L 9.421875 64.59375 
z
" id="DejaVuSans-105"/>
      <path d="M 9.421875 75.984375 
L 18.40625 75.984375 
L 18.40625 0 
L 9.421875 0 
z
" id="DejaVuSans-108"/>
      <path d="M 44.28125 53.078125 
L 44.28125 44.578125 
Q 40.484375 46.53125 36.375 47.5 
Q 32.28125 48.484375 27.875 48.484375 
Q 21.1875 48.484375 17.84375 46.4375 
Q 14.5 44.390625 14.5 40.28125 
Q 14.5 37.15625 16.890625 35.375 
Q 19.28125 33.59375 26.515625 31.984375 
L 29.59375 31.296875 
Q 39.15625 29.25 43.1875 25.515625 
Q 47.21875 21.78125 47.21875 15.09375 
Q 47.21875 7.46875 41.1875 3.015625 
Q 35.15625 -1.421875 24.609375 -1.421875 
Q 20.21875 -1.421875 15.453125 -0.5625 
Q 10.6875 0.296875 5.421875 2 
L 5.421875 11.28125 
Q 10.40625 8.6875 15.234375 7.390625 
Q 20.0625 6.109375 24.8125 6.109375 
Q 31.15625 6.109375 34.5625 8.28125 
Q 37.984375 10.453125 37.984375 14.40625 
Q 37.984375 18.0625 35.515625 20.015625 
Q 33.0625 21.96875 24.703125 23.78125 
L 21.578125 24.515625 
Q 13.234375 26.265625 9.515625 29.90625 
Q 5.8125 33.546875 5.8125 39.890625 
Q 5.8125 47.609375 11.28125 51.796875 
Q 16.75 56 26.8125 56 
Q 31.78125 56 36.171875 55.265625 
Q 40.578125 54.546875 44.28125 53.078125 
z
" id="DejaVuSans-115"/>
      <path d="M 8.015625 75.875 
L 15.828125 75.875 
Q 23.140625 64.359375 26.78125 53.3125 
Q 30.421875 42.28125 30.421875 31.390625 
Q 30.421875 20.453125 26.78125 9.375 
Q 23.140625 -1.703125 15.828125 -13.1875 
L 8.015625 -13.1875 
Q 14.5 -2 17.703125 9.0625 
Q 20.90625 20.125 20.90625 31.390625 
Q 20.90625 42.671875 17.703125 53.65625 
Q 14.5 64.65625 8.015625 75.875 
z
" id="DejaVuSans-41"/>
     </defs>
     <g transform="translate(254.197812 331.916562)scale(0.1 -0.1)">
      <use xlink:href="#DejaVuSans-82"/>
      <use x="69.451172" xlink:href="#DejaVuSans-97"/>
      <use x="130.730469" xlink:href="#DejaVuSans-110"/>
      <use x="194.109375" xlink:href="#DejaVuSans-103"/>
      <use x="257.585938" xlink:href="#DejaVuSans-101"/>
      <use x="319.109375" xlink:href="#DejaVuSans-32"/>
      <use x="350.896484" xlink:href="#DejaVuSans-40"/>
      <use x="389.910156" xlink:href="#DejaVuSans-109"/>
      <use x="487.322266" xlink:href="#DejaVuSans-105"/>
      <use x="515.105469" xlink:href="#DejaVuSans-108"/>
      <use x="542.888672" xlink:href="#DejaVuSans-101"/>
      <use x="604.412109" xlink:href="#DejaVuSans-115"/>
      <use x="656.511719" xlink:href="#DejaVuSans-41"/>
     </g>
    </g>
   </g>
   <g id="matplotlib.axis_2">
    <g id="ytick_1">
     <g id="line2d_9">
      <defs>
       <path d="M 0 0 
L -3.5 0 
" id="ma2e81ab881" style="stroke:#000000;stroke-width:0.8;"/>
      </defs>
      <g>
       <use style="stroke:#000000;stroke-width:0.8;" x="130.46875" xlink:href="#ma2e81ab881" y="287.731378"/>
      </g>
     </g>
     <g id="text_10">
      <!-- smart fortwo electric drive convertible -->
      <defs>
       <path d="M 41.109375 46.296875 
Q 39.59375 47.171875 37.8125 47.578125 
Q 36.03125 48 33.890625 48 
Q 26.265625 48 22.1875 43.046875 
Q 18.109375 38.09375 18.109375 28.8125 
L 18.109375 0 
L 9.078125 0 
L 9.078125 54.6875 
L 18.109375 54.6875 
L 18.109375 46.1875 
Q 20.953125 51.171875 25.484375 53.578125 
Q 30.03125 56 36.53125 56 
Q 37.453125 56 38.578125 55.875 
Q 39.703125 55.765625 41.0625 55.515625 
z
" id="DejaVuSans-114"/>
       <path d="M 18.3125 70.21875 
L 18.3125 54.6875 
L 36.8125 54.6875 
L 36.8125 47.703125 
L 18.3125 47.703125 
L 18.3125 18.015625 
Q 18.3125 11.328125 20.140625 9.421875 
Q 21.96875 7.515625 27.59375 7.515625 
L 36.8125 7.515625 
L 36.8125 0 
L 27.59375 0 
Q 17.1875 0 13.234375 3.875 
Q 9.28125 7.765625 9.28125 18.015625 
L 9.28125 47.703125 
L 2.6875 47.703125 
L 2.6875 54.6875 
L 9.28125 54.6875 
L 9.28125 70.21875 
z
" id="DejaVuSans-116"/>
       <path d="M 37.109375 75.984375 
L 37.109375 68.5 
L 28.515625 68.5 
Q 23.6875 68.5 21.796875 66.546875 
Q 19.921875 64.59375 19.921875 59.515625 
L 19.921875 54.6875 
L 34.71875 54.6875 
L 34.71875 47.703125 
L 19.921875 47.703125 
L 19.921875 0 
L 10.890625 0 
L 10.890625 47.703125 
L 2.296875 47.703125 
L 2.296875 54.6875 
L 10.890625 54.6875 
L 10.890625 58.5 
Q 10.890625 67.625 15.140625 71.796875 
Q 19.390625 75.984375 28.609375 75.984375 
z
" id="DejaVuSans-102"/>
       <path d="M 30.609375 48.390625 
Q 23.390625 48.390625 19.1875 42.75 
Q 14.984375 37.109375 14.984375 27.296875 
Q 14.984375 17.484375 19.15625 11.84375 
Q 23.34375 6.203125 30.609375 6.203125 
Q 37.796875 6.203125 41.984375 11.859375 
Q 46.1875 17.53125 46.1875 27.296875 
Q 46.1875 37.015625 41.984375 42.703125 
Q 37.796875 48.390625 30.609375 48.390625 
z
M 30.609375 56 
Q 42.328125 56 49.015625 48.375 
Q 55.71875 40.765625 55.71875 27.296875 
Q 55.71875 13.875 49.015625 6.21875 
Q 42.328125 -1.421875 30.609375 -1.421875 
Q 18.84375 -1.421875 12.171875 6.21875 
Q 5.515625 13.875 5.515625 27.296875 
Q 5.515625 40.765625 12.171875 48.375 
Q 18.84375 56 30.609375 56 
z
" id="DejaVuSans-111"/>
       <path d="M 4.203125 54.6875 
L 13.1875 54.6875 
L 24.421875 12.015625 
L 35.59375 54.6875 
L 46.1875 54.6875 
L 57.421875 12.015625 
L 68.609375 54.6875 
L 77.59375 54.6875 
L 63.28125 0 
L 52.6875 0 
L 40.921875 44.828125 
L 29.109375 0 
L 18.5 0 
z
" id="DejaVuSans-119"/>
       <path d="M 48.78125 52.59375 
L 48.78125 44.1875 
Q 44.96875 46.296875 41.140625 47.34375 
Q 37.3125 48.390625 33.40625 48.390625 
Q 24.65625 48.390625 19.8125 42.84375 
Q 14.984375 37.3125 14.984375 27.296875 
Q 14.984375 17.28125 19.8125 11.734375 
Q 24.65625 6.203125 33.40625 6.203125 
Q 37.3125 6.203125 41.140625 7.25 
Q 44.96875 8.296875 48.78125 10.40625 
L 48.78125 2.09375 
Q 45.015625 0.34375 40.984375 -0.53125 
Q 36.96875 -1.421875 32.421875 -1.421875 
Q 20.0625 -1.421875 12.78125 6.34375 
Q 5.515625 14.109375 5.515625 27.296875 
Q 5.515625 40.671875 12.859375 48.328125 
Q 20.21875 56 33.015625 56 
Q 37.15625 56 41.109375 55.140625 
Q 45.0625 54.296875 48.78125 52.59375 
z
" id="DejaVuSans-99"/>
       <path d="M 45.40625 46.390625 
L 45.40625 75.984375 
L 54.390625 75.984375 
L 54.390625 0 
L 45.40625 0 
L 45.40625 8.203125 
Q 42.578125 3.328125 38.25 0.953125 
Q 33.9375 -1.421875 27.875 -1.421875 
Q 17.96875 -1.421875 11.734375 6.484375 
Q 5.515625 14.40625 5.515625 27.296875 
Q 5.515625 40.1875 11.734375 48.09375 
Q 17.96875 56 27.875 56 
Q 33.9375 56 38.25 53.625 
Q 42.578125 51.265625 45.40625 46.390625 
z
M 14.796875 27.296875 
Q 14.796875 17.390625 18.875 11.75 
Q 22.953125 6.109375 30.078125 6.109375 
Q 37.203125 6.109375 41.296875 11.75 
Q 45.40625 17.390625 45.40625 27.296875 
Q 45.40625 37.203125 41.296875 42.84375 
Q 37.203125 48.484375 30.078125 48.484375 
Q 22.953125 48.484375 18.875 42.84375 
Q 14.796875 37.203125 14.796875 27.296875 
z
" id="DejaVuSans-100"/>
       <path d="M 2.984375 54.6875 
L 12.5 54.6875 
L 29.59375 8.796875 
L 46.6875 54.6875 
L 56.203125 54.6875 
L 35.6875 0 
L 23.484375 0 
z
" id="DejaVuSans-118"/>
       <path d="M 48.6875 27.296875 
Q 48.6875 37.203125 44.609375 42.84375 
Q 40.53125 48.484375 33.40625 48.484375 
Q 26.265625 48.484375 22.1875 42.84375 
Q 18.109375 37.203125 18.109375 27.296875 
Q 18.109375 17.390625 22.1875 11.75 
Q 26.265625 6.109375 33.40625 6.109375 
Q 40.53125 6.109375 44.609375 11.75 
Q 48.6875 17.390625 48.6875 27.296875 
z
M 18.109375 46.390625 
Q 20.953125 51.265625 25.265625 53.625 
Q 29.59375 56 35.59375 56 
Q 45.5625 56 51.78125 48.09375 
Q 58.015625 40.1875 58.015625 27.296875 
Q 58.015625 14.40625 51.78125 6.484375 
Q 45.5625 -1.421875 35.59375 -1.421875 
Q 29.59375 -1.421875 25.265625 0.953125 
Q 20.953125 3.328125 18.109375 8.203125 
L 18.109375 0 
L 9.078125 0 
L 9.078125 75.984375 
L 18.109375 75.984375 
z
" id="DejaVuSans-98"/>
      </defs>
      <g transform="translate(27.416406 289.630987)scale(0.05 -0.05)">
       <use xlink:href="#DejaVuSans-115"/>
       <use x="52.099609" xlink:href="#DejaVuSans-109"/>
       <use x="149.511719" xlink:href="#DejaVuSans-97"/>
       <use x="210.791016" xlink:href="#DejaVuSans-114"/>
       <use x="251.904297" xlink:href="#DejaVuSans-116"/>
       <use x="291.113281" xlink:href="#DejaVuSans-32"/>
       <use x="322.900391" xlink:href="#DejaVuSans-102"/>
       <use x="358.105469" xlink:href="#DejaVuSans-111"/>
       <use x="419.287109" xlink:href="#DejaVuSans-114"/>
       <use x="460.400391" xlink:href="#DejaVuSans-116"/>
       <use x="499.609375" xlink:href="#DejaVuSans-119"/>
       <use x="581.396484" xlink:href="#DejaVuSans-111"/>
       <use x="642.578125" xlink:href="#DejaVuSans-32"/>
       <use x="674.365234" xlink:href="#DejaVuSans-101"/>
       <use x="735.888672" xlink:href="#DejaVuSans-108"/>
       <use x="763.671875" xlink:href="#DejaVuSans-101"/>
       <use x="825.195312" xlink:href="#DejaVuSans-99"/>
       <use x="880.175781" xlink:href="#DejaVuSans-116"/>
       <use x="919.384766" xlink:href="#DejaVuSans-114"/>
       <use x="960.498047" xlink:href="#DejaVuSans-105"/>
       <use x="988.28125" xlink:href="#DejaVuSans-99"/>
       <use x="1043.261719" xlink:href="#DejaVuSans-32"/>
       <use x="1075.048828" xlink:href="#DejaVuSans-100"/>
       <use x="1138.525391" xlink:href="#DejaVuSans-114"/>
       <use x="1179.638672" xlink:href="#DejaVuSans-105"/>
       <use x="1207.421875" xlink:href="#DejaVuSans-118"/>
       <use x="1266.601562" xlink:href="#DejaVuSans-101"/>
       <use x="1328.125" xlink:href="#DejaVuSans-32"/>
       <use x="1359.912109" xlink:href="#DejaVuSans-99"/>
       <use x="1414.892578" xlink:href="#DejaVuSans-111"/>
       <use x="1476.074219" xlink:href="#DejaVuSans-110"/>
       <use x="1539.453125" xlink:href="#DejaVuSans-118"/>
       <use x="1598.632812" xlink:href="#DejaVuSans-101"/>
       <use x="1660.15625" xlink:href="#DejaVuSans-114"/>
       <use x="1701.269531" xlink:href="#DejaVuSans-116"/>
       <use x="1740.478516" xlink:href="#DejaVuSans-105"/>
       <use x="1768.261719" xlink:href="#DejaVuSans-98"/>
       <use x="1831.738281" xlink:href="#DejaVuSans-108"/>
       <use x="1859.521484" xlink:href="#DejaVuSans-101"/>
      </g>
     </g>
    </g>
    <g id="ytick_2">
     <g id="line2d_10">
      <g>
       <use style="stroke:#000000;stroke-width:0.8;" x="130.46875" xlink:href="#ma2e81ab881" y="279.737095"/>
      </g>
     </g>
     <g id="text_11">
      <!-- smart fortwo electric drive coupe -->
      <defs>
       <path d="M 8.5 21.578125 
L 8.5 54.6875 
L 17.484375 54.6875 
L 17.484375 21.921875 
Q 17.484375 14.15625 20.5 10.265625 
Q 23.53125 6.390625 29.59375 6.390625 
Q 36.859375 6.390625 41.078125 11.03125 
Q 45.3125 15.671875 45.3125 23.6875 
L 45.3125 54.6875 
L 54.296875 54.6875 
L 54.296875 0 
L 45.3125 0 
L 45.3125 8.40625 
Q 42.046875 3.421875 37.71875 1 
Q 33.40625 -1.421875 27.6875 -1.421875 
Q 18.265625 -1.421875 13.375 4.4375 
Q 8.5 10.296875 8.5 21.578125 
z
M 31.109375 56 
z
" id="DejaVuSans-117"/>
       <path d="M 18.109375 8.203125 
L 18.109375 -20.796875 
L 9.078125 -20.796875 
L 9.078125 54.6875 
L 18.109375 54.6875 
L 18.109375 46.390625 
Q 20.953125 51.265625 25.265625 53.625 
Q 29.59375 56 35.59375 56 
Q 45.5625 56 51.78125 48.09375 
Q 58.015625 40.1875 58.015625 27.296875 
Q 58.015625 14.40625 51.78125 6.484375 
Q 45.5625 -1.421875 35.59375 -1.421875 
Q 29.59375 -1.421875 25.265625 0.953125 
Q 20.953125 3.328125 18.109375 8.203125 
z
M 48.6875 27.296875 
Q 48.6875 37.203125 44.609375 42.84375 
Q 40.53125 48.484375 33.40625 48.484375 
Q 26.265625 48.484375 22.1875 42.84375 
Q 18.109375 37.203125 18.109375 27.296875 
Q 18.109375 17.390625 22.1875 11.75 
Q 26.265625 6.109375 33.40625 6.109375 
Q 40.53125 6.109375 44.609375 11.75 
Q 48.6875 17.390625 48.6875 27.296875 
z
" id="DejaVuSans-112"/>
      </defs>
      <g transform="translate(40.246094 281.636705)scale(0.05 -0.05)">
       <use xlink:href="#DejaVuSans-115"/>
       <use x="52.099609" xlink:href="#DejaVuSans-109"/>
       <use x="149.511719" xlink:href="#DejaVuSans-97"/>
       <use x="210.791016" xlink:href="#DejaVuSans-114"/>
       <use x="251.904297" xlink:href="#DejaVuSans-116"/>
       <use x="291.113281" xlink:href="#DejaVuSans-32"/>
       <use x="322.900391" xlink:href="#DejaVuSans-102"/>
       <use x="358.105469" xlink:href="#DejaVuSans-111"/>
       <use x="419.287109" xlink:href="#DejaVuSans-114"/>
       <use x="460.400391" xlink:href="#DejaVuSans-116"/>
       <use x="499.609375" xlink:href="#DejaVuSans-119"/>
       <use x="581.396484" xlink:href="#DejaVuSans-111"/>
       <use x="642.578125" xlink:href="#DejaVuSans-32"/>
       <use x="674.365234" xlink:href="#DejaVuSans-101"/>
       <use x="735.888672" xlink:href="#DejaVuSans-108"/>
       <use x="763.671875" xlink:href="#DejaVuSans-101"/>
       <use x="825.195312" xlink:href="#DejaVuSans-99"/>
       <use x="880.175781" xlink:href="#DejaVuSans-116"/>
       <use x="919.384766" xlink:href="#DejaVuSans-114"/>
       <use x="960.498047" xlink:href="#DejaVuSans-105"/>
       <use x="988.28125" xlink:href="#DejaVuSans-99"/>
       <use x="1043.261719" xlink:href="#DejaVuSans-32"/>
       <use x="1075.048828" xlink:href="#DejaVuSans-100"/>
       <use x="1138.525391" xlink:href="#DejaVuSans-114"/>
       <use x="1179.638672" xlink:href="#DejaVuSans-105"/>
       <use x="1207.421875" xlink:href="#DejaVuSans-118"/>
       <use x="1266.601562" xlink:href="#DejaVuSans-101"/>
       <use x="1328.125" xlink:href="#DejaVuSans-32"/>
       <use x="1359.912109" xlink:href="#DejaVuSans-99"/>
       <use x="1414.892578" xlink:href="#DejaVuSans-111"/>
       <use x="1476.074219" xlink:href="#DejaVuSans-117"/>
       <use x="1539.453125" xlink:href="#DejaVuSans-112"/>
       <use x="1602.929688" xlink:href="#DejaVuSans-101"/>
      </g>
     </g>
    </g>
    <g id="ytick_3">
     <g id="line2d_11">
      <g>
       <use style="stroke:#000000;stroke-width:0.8;" x="130.46875" xlink:href="#ma2e81ab881" y="271.742813"/>
      </g>
     </g>
     <g id="text_12">
      <!-- Fiat 500e -->
      <defs>
       <path d="M 9.8125 72.90625 
L 51.703125 72.90625 
L 51.703125 64.59375 
L 19.671875 64.59375 
L 19.671875 43.109375 
L 48.578125 43.109375 
L 48.578125 34.8125 
L 19.671875 34.8125 
L 19.671875 0 
L 9.8125 0 
z
" id="DejaVuSans-70"/>
      </defs>
      <g transform="translate(99.975781 273.642422)scale(0.05 -0.05)">
       <use xlink:href="#DejaVuSans-70"/>
       <use x="57.410156" xlink:href="#DejaVuSans-105"/>
       <use x="85.193359" xlink:href="#DejaVuSans-97"/>
       <use x="146.472656" xlink:href="#DejaVuSans-116"/>
       <use x="185.681641" xlink:href="#DejaVuSans-32"/>
       <use x="217.46875" xlink:href="#DejaVuSans-53"/>
       <use x="281.091797" xlink:href="#DejaVuSans-48"/>
       <use x="344.714844" xlink:href="#DejaVuSans-48"/>
       <use x="408.337891" xlink:href="#DejaVuSans-101"/>
      </g>
     </g>
    </g>
    <g id="ytick_4">
     <g id="line2d_12">
      <g>
       <use style="stroke:#000000;stroke-width:0.8;" x="130.46875" xlink:href="#ma2e81ab881" y="263.748531"/>
      </g>
     </g>
     <g id="text_13">
      <!-- Honda Clarity EV -->
      <defs>
       <path d="M 9.8125 72.90625 
L 19.671875 72.90625 
L 19.671875 43.015625 
L 55.515625 43.015625 
L 55.515625 72.90625 
L 65.375 72.90625 
L 65.375 0 
L 55.515625 0 
L 55.515625 34.71875 
L 19.671875 34.71875 
L 19.671875 0 
L 9.8125 0 
z
" id="DejaVuSans-72"/>
       <path d="M 64.40625 67.28125 
L 64.40625 56.890625 
Q 59.421875 61.53125 53.78125 63.8125 
Q 48.140625 66.109375 41.796875 66.109375 
Q 29.296875 66.109375 22.65625 58.46875 
Q 16.015625 50.828125 16.015625 36.375 
Q 16.015625 21.96875 22.65625 14.328125 
Q 29.296875 6.6875 41.796875 6.6875 
Q 48.140625 6.6875 53.78125 8.984375 
Q 59.421875 11.28125 64.40625 15.921875 
L 64.40625 5.609375 
Q 59.234375 2.09375 53.4375 0.328125 
Q 47.65625 -1.421875 41.21875 -1.421875 
Q 24.65625 -1.421875 15.125 8.703125 
Q 5.609375 18.84375 5.609375 36.375 
Q 5.609375 53.953125 15.125 64.078125 
Q 24.65625 74.21875 41.21875 74.21875 
Q 47.75 74.21875 53.53125 72.484375 
Q 59.328125 70.75 64.40625 67.28125 
z
" id="DejaVuSans-67"/>
       <path d="M 32.171875 -5.078125 
Q 28.375 -14.84375 24.75 -17.8125 
Q 21.140625 -20.796875 15.09375 -20.796875 
L 7.90625 -20.796875 
L 7.90625 -13.28125 
L 13.1875 -13.28125 
Q 16.890625 -13.28125 18.9375 -11.515625 
Q 21 -9.765625 23.484375 -3.21875 
L 25.09375 0.875 
L 2.984375 54.6875 
L 12.5 54.6875 
L 29.59375 11.921875 
L 46.6875 54.6875 
L 56.203125 54.6875 
z
" id="DejaVuSans-121"/>
       <path d="M 9.8125 72.90625 
L 55.90625 72.90625 
L 55.90625 64.59375 
L 19.671875 64.59375 
L 19.671875 43.015625 
L 54.390625 43.015625 
L 54.390625 34.71875 
L 19.671875 34.71875 
L 19.671875 8.296875 
L 56.78125 8.296875 
L 56.78125 0 
L 9.8125 0 
z
" id="DejaVuSans-69"/>
       <path d="M 28.609375 0 
L 0.78125 72.90625 
L 11.078125 72.90625 
L 34.1875 11.53125 
L 57.328125 72.90625 
L 67.578125 72.90625 
L 39.796875 0 
z
" id="DejaVuSans-86"/>
      </defs>
      <g transform="translate(81.175781 265.64814)scale(0.05 -0.05)">
       <use xlink:href="#DejaVuSans-72"/>
       <use x="75.195312" xlink:href="#DejaVuSans-111"/>
       <use x="136.376953" xlink:href="#DejaVuSans-110"/>
       <use x="199.755859" xlink:href="#DejaVuSans-100"/>
       <use x="263.232422" xlink:href="#DejaVuSans-97"/>
       <use x="324.511719" xlink:href="#DejaVuSans-32"/>
       <use x="356.298828" xlink:href="#DejaVuSans-67"/>
       <use x="426.123047" xlink:href="#DejaVuSans-108"/>
       <use x="453.90625" xlink:href="#DejaVuSans-97"/>
       <use x="515.185547" xlink:href="#DejaVuSans-114"/>
       <use x="556.298828" xlink:href="#DejaVuSans-105"/>
       <use x="584.082031" xlink:href="#DejaVuSans-116"/>
       <use x="623.291016" xlink:href="#DejaVuSans-121"/>
       <use x="682.470703" xlink:href="#DejaVuSans-32"/>
       <use x="714.257812" xlink:href="#DejaVuSans-69"/>
       <use x="777.441406" xlink:href="#DejaVuSans-86"/>
      </g>
     </g>
    </g>
    <g id="ytick_5">
     <g id="line2d_13">
      <g>
       <use style="stroke:#000000;stroke-width:0.8;" x="130.46875" xlink:href="#ma2e81ab881" y="255.754248"/>
      </g>
     </g>
     <g id="text_14">
      <!-- Kia Soul Electric -->
      <defs>
       <path d="M 9.8125 72.90625 
L 19.671875 72.90625 
L 19.671875 42.09375 
L 52.390625 72.90625 
L 65.09375 72.90625 
L 28.90625 38.921875 
L 67.671875 0 
L 54.6875 0 
L 19.671875 35.109375 
L 19.671875 0 
L 9.8125 0 
z
" id="DejaVuSans-75"/>
       <path d="M 53.515625 70.515625 
L 53.515625 60.890625 
Q 47.90625 63.578125 42.921875 64.890625 
Q 37.9375 66.21875 33.296875 66.21875 
Q 25.25 66.21875 20.875 63.09375 
Q 16.5 59.96875 16.5 54.203125 
Q 16.5 49.359375 19.40625 46.890625 
Q 22.3125 44.4375 30.421875 42.921875 
L 36.375 41.703125 
Q 47.40625 39.59375 52.65625 34.296875 
Q 57.90625 29 57.90625 20.125 
Q 57.90625 9.515625 50.796875 4.046875 
Q 43.703125 -1.421875 29.984375 -1.421875 
Q 24.8125 -1.421875 18.96875 -0.25 
Q 13.140625 0.921875 6.890625 3.21875 
L 6.890625 13.375 
Q 12.890625 10.015625 18.65625 8.296875 
Q 24.421875 6.59375 29.984375 6.59375 
Q 38.421875 6.59375 43.015625 9.90625 
Q 47.609375 13.234375 47.609375 19.390625 
Q 47.609375 24.75 44.3125 27.78125 
Q 41.015625 30.8125 33.5 32.328125 
L 27.484375 33.5 
Q 16.453125 35.6875 11.515625 40.375 
Q 6.59375 45.0625 6.59375 53.421875 
Q 6.59375 63.09375 13.40625 68.65625 
Q 20.21875 74.21875 32.171875 74.21875 
Q 37.3125 74.21875 42.625 73.28125 
Q 47.953125 72.359375 53.515625 70.515625 
z
" id="DejaVuSans-83"/>
      </defs>
      <g transform="translate(83.239062 257.653858)scale(0.05 -0.05)">
       <use xlink:href="#DejaVuSans-75"/>
       <use x="65.576172" xlink:href="#DejaVuSans-105"/>
       <use x="93.359375" xlink:href="#DejaVuSans-97"/>
       <use x="154.638672" xlink:href="#DejaVuSans-32"/>
       <use x="186.425781" xlink:href="#DejaVuSans-83"/>
       <use x="249.902344" xlink:href="#DejaVuSans-111"/>
       <use x="311.083984" xlink:href="#DejaVuSans-117"/>
       <use x="374.462891" xlink:href="#DejaVuSans-108"/>
       <use x="402.246094" xlink:href="#DejaVuSans-32"/>
       <use x="434.033203" xlink:href="#DejaVuSans-69"/>
       <use x="497.216797" xlink:href="#DejaVuSans-108"/>
       <use x="525" xlink:href="#DejaVuSans-101"/>
       <use x="586.523438" xlink:href="#DejaVuSans-99"/>
       <use x="641.503906" xlink:href="#DejaVuSans-116"/>
       <use x="680.712891" xlink:href="#DejaVuSans-114"/>
       <use x="721.826172" xlink:href="#DejaVuSans-105"/>
       <use x="749.609375" xlink:href="#DejaVuSans-99"/>
      </g>
     </g>
    </g>
    <g id="ytick_6">
     <g id="line2d_14">
      <g>
       <use style="stroke:#000000;stroke-width:0.8;" x="130.46875" xlink:href="#ma2e81ab881" y="247.759966"/>
      </g>
     </g>
     <g id="text_15">
      <!-- Hyundai Ioniq Electric -->
      <defs>
       <path d="M 9.8125 72.90625 
L 19.671875 72.90625 
L 19.671875 0 
L 9.8125 0 
z
" id="DejaVuSans-73"/>
       <path d="M 14.796875 27.296875 
Q 14.796875 17.390625 18.875 11.75 
Q 22.953125 6.109375 30.078125 6.109375 
Q 37.203125 6.109375 41.296875 11.75 
Q 45.40625 17.390625 45.40625 27.296875 
Q 45.40625 37.203125 41.296875 42.84375 
Q 37.203125 48.484375 30.078125 48.484375 
Q 22.953125 48.484375 18.875 42.84375 
Q 14.796875 37.203125 14.796875 27.296875 
z
M 45.40625 8.203125 
Q 42.578125 3.328125 38.25 0.953125 
Q 33.9375 -1.421875 27.875 -1.421875 
Q 17.96875 -1.421875 11.734375 6.484375 
Q 5.515625 14.40625 5.515625 27.296875 
Q 5.515625 40.1875 11.734375 48.09375 
Q 17.96875 56 27.875 56 
Q 33.9375 56 38.25 53.625 
Q 42.578125 51.265625 45.40625 46.390625 
L 45.40625 54.6875 
L 54.390625 54.6875 
L 54.390625 -20.796875 
L 45.40625 -20.796875 
z
" id="DejaVuSans-113"/>
      </defs>
      <g transform="translate(68.811719 249.659575)scale(0.05 -0.05)">
       <use xlink:href="#DejaVuSans-72"/>
       <use x="75.195312" xlink:href="#DejaVuSans-121"/>
       <use x="134.375" xlink:href="#DejaVuSans-117"/>
       <use x="197.753906" xlink:href="#DejaVuSans-110"/>
       <use x="261.132812" xlink:href="#DejaVuSans-100"/>
       <use x="324.609375" xlink:href="#DejaVuSans-97"/>
       <use x="385.888672" xlink:href="#DejaVuSans-105"/>
       <use x="413.671875" xlink:href="#DejaVuSans-32"/>
       <use x="445.458984" xlink:href="#DejaVuSans-73"/>
       <use x="474.951172" xlink:href="#DejaVuSans-111"/>
       <use x="536.132812" xlink:href="#DejaVuSans-110"/>
       <use x="599.511719" xlink:href="#DejaVuSans-105"/>
       <use x="627.294922" xlink:href="#DejaVuSans-113"/>
       <use x="690.771484" xlink:href="#DejaVuSans-32"/>
       <use x="722.558594" xlink:href="#DejaVuSans-69"/>
       <use x="785.742188" xlink:href="#DejaVuSans-108"/>
       <use x="813.525391" xlink:href="#DejaVuSans-101"/>
       <use x="875.048828" xlink:href="#DejaVuSans-99"/>
       <use x="930.029297" xlink:href="#DejaVuSans-116"/>
       <use x="969.238281" xlink:href="#DejaVuSans-114"/>
       <use x="1010.351562" xlink:href="#DejaVuSans-105"/>
       <use x="1038.134766" xlink:href="#DejaVuSans-99"/>
      </g>
     </g>
    </g>
    <g id="ytick_7">
     <g id="line2d_15">
      <g>
       <use style="stroke:#000000;stroke-width:0.8;" x="130.46875" xlink:href="#ma2e81ab881" y="239.765683"/>
      </g>
     </g>
     <g id="text_16">
      <!-- Volkswagen e-Golf -->
      <defs>
       <path d="M 9.078125 75.984375 
L 18.109375 75.984375 
L 18.109375 31.109375 
L 44.921875 54.6875 
L 56.390625 54.6875 
L 27.390625 29.109375 
L 57.625 0 
L 45.90625 0 
L 18.109375 26.703125 
L 18.109375 0 
L 9.078125 0 
z
" id="DejaVuSans-107"/>
       <path d="M 4.890625 31.390625 
L 31.203125 31.390625 
L 31.203125 23.390625 
L 4.890625 23.390625 
z
" id="DejaVuSans-45"/>
       <path d="M 59.515625 10.40625 
L 59.515625 29.984375 
L 43.40625 29.984375 
L 43.40625 38.09375 
L 69.28125 38.09375 
L 69.28125 6.78125 
Q 63.578125 2.734375 56.6875 0.65625 
Q 49.8125 -1.421875 42 -1.421875 
Q 24.90625 -1.421875 15.25 8.5625 
Q 5.609375 18.5625 5.609375 36.375 
Q 5.609375 54.25 15.25 64.234375 
Q 24.90625 74.21875 42 74.21875 
Q 49.125 74.21875 55.546875 72.453125 
Q 61.96875 70.703125 67.390625 67.28125 
L 67.390625 56.78125 
Q 61.921875 61.421875 55.765625 63.765625 
Q 49.609375 66.109375 42.828125 66.109375 
Q 29.4375 66.109375 22.71875 58.640625 
Q 16.015625 51.171875 16.015625 36.375 
Q 16.015625 21.625 22.71875 14.15625 
Q 29.4375 6.6875 42.828125 6.6875 
Q 48.046875 6.6875 52.140625 7.59375 
Q 56.25 8.5 59.515625 10.40625 
z
" id="DejaVuSans-71"/>
      </defs>
      <g transform="translate(76.978125 241.665293)scale(0.05 -0.05)">
       <use xlink:href="#DejaVuSans-86"/>
       <use x="68.298828" xlink:href="#DejaVuSans-111"/>
       <use x="129.480469" xlink:href="#DejaVuSans-108"/>
       <use x="157.263672" xlink:href="#DejaVuSans-107"/>
       <use x="215.173828" xlink:href="#DejaVuSans-115"/>
       <use x="267.273438" xlink:href="#DejaVuSans-119"/>
       <use x="349.060547" xlink:href="#DejaVuSans-97"/>
       <use x="410.339844" xlink:href="#DejaVuSans-103"/>
       <use x="473.816406" xlink:href="#DejaVuSans-101"/>
       <use x="535.339844" xlink:href="#DejaVuSans-110"/>
       <use x="598.71875" xlink:href="#DejaVuSans-32"/>
       <use x="630.505859" xlink:href="#DejaVuSans-101"/>
       <use x="692.029297" xlink:href="#DejaVuSans-45"/>
       <use x="728.160156" xlink:href="#DejaVuSans-71"/>
       <use x="805.650391" xlink:href="#DejaVuSans-111"/>
       <use x="866.832031" xlink:href="#DejaVuSans-108"/>
       <use x="894.615234" xlink:href="#DejaVuSans-102"/>
      </g>
     </g>
    </g>
    <g id="ytick_8">
     <g id="line2d_16">
      <g>
       <use style="stroke:#000000;stroke-width:0.8;" x="130.46875" xlink:href="#ma2e81ab881" y="231.771401"/>
      </g>
     </g>
     <g id="text_17">
      <!-- Nissan Leaf (40 kW-hr battery pack) -->
      <defs>
       <path d="M 9.8125 72.90625 
L 23.09375 72.90625 
L 55.421875 11.921875 
L 55.421875 72.90625 
L 64.984375 72.90625 
L 64.984375 0 
L 51.703125 0 
L 19.390625 60.984375 
L 19.390625 0 
L 9.8125 0 
z
" id="DejaVuSans-78"/>
       <path d="M 9.8125 72.90625 
L 19.671875 72.90625 
L 19.671875 8.296875 
L 55.171875 8.296875 
L 55.171875 0 
L 9.8125 0 
z
" id="DejaVuSans-76"/>
       <path d="M 37.796875 64.3125 
L 12.890625 25.390625 
L 37.796875 25.390625 
z
M 35.203125 72.90625 
L 47.609375 72.90625 
L 47.609375 25.390625 
L 58.015625 25.390625 
L 58.015625 17.1875 
L 47.609375 17.1875 
L 47.609375 0 
L 37.796875 0 
L 37.796875 17.1875 
L 4.890625 17.1875 
L 4.890625 26.703125 
z
" id="DejaVuSans-52"/>
       <path d="M 3.328125 72.90625 
L 13.28125 72.90625 
L 28.609375 11.28125 
L 43.890625 72.90625 
L 54.984375 72.90625 
L 70.3125 11.28125 
L 85.59375 72.90625 
L 95.609375 72.90625 
L 77.296875 0 
L 64.890625 0 
L 49.515625 63.28125 
L 33.984375 0 
L 21.578125 0 
z
" id="DejaVuSans-87"/>
       <path d="M 54.890625 33.015625 
L 54.890625 0 
L 45.90625 0 
L 45.90625 32.71875 
Q 45.90625 40.484375 42.875 44.328125 
Q 39.84375 48.1875 33.796875 48.1875 
Q 26.515625 48.1875 22.3125 43.546875 
Q 18.109375 38.921875 18.109375 30.90625 
L 18.109375 0 
L 9.078125 0 
L 9.078125 75.984375 
L 18.109375 75.984375 
L 18.109375 46.1875 
Q 21.34375 51.125 25.703125 53.5625 
Q 30.078125 56 35.796875 56 
Q 45.21875 56 50.046875 50.171875 
Q 54.890625 44.34375 54.890625 33.015625 
z
" id="DejaVuSans-104"/>
      </defs>
      <g transform="translate(33.004687 233.67101)scale(0.05 -0.05)">
       <use xlink:href="#DejaVuSans-78"/>
       <use x="74.804688" xlink:href="#DejaVuSans-105"/>
       <use x="102.587891" xlink:href="#DejaVuSans-115"/>
       <use x="154.6875" xlink:href="#DejaVuSans-115"/>
       <use x="206.787109" xlink:href="#DejaVuSans-97"/>
       <use x="268.066406" xlink:href="#DejaVuSans-110"/>
       <use x="331.445312" xlink:href="#DejaVuSans-32"/>
       <use x="363.232422" xlink:href="#DejaVuSans-76"/>
       <use x="418.929688" xlink:href="#DejaVuSans-101"/>
       <use x="480.453125" xlink:href="#DejaVuSans-97"/>
       <use x="541.732422" xlink:href="#DejaVuSans-102"/>
       <use x="576.9375" xlink:href="#DejaVuSans-32"/>
       <use x="608.724609" xlink:href="#DejaVuSans-40"/>
       <use x="647.738281" xlink:href="#DejaVuSans-52"/>
       <use x="711.361328" xlink:href="#DejaVuSans-48"/>
       <use x="774.984375" xlink:href="#DejaVuSans-32"/>
       <use x="806.771484" xlink:href="#DejaVuSans-107"/>
       <use x="864.681641" xlink:href="#DejaVuSans-87"/>
       <use x="963.496094" xlink:href="#DejaVuSans-45"/>
       <use x="999.580078" xlink:href="#DejaVuSans-104"/>
       <use x="1062.958984" xlink:href="#DejaVuSans-114"/>
       <use x="1104.072266" xlink:href="#DejaVuSans-32"/>
       <use x="1135.859375" xlink:href="#DejaVuSans-98"/>
       <use x="1199.335938" xlink:href="#DejaVuSans-97"/>
       <use x="1260.615234" xlink:href="#DejaVuSans-116"/>
       <use x="1299.824219" xlink:href="#DejaVuSans-116"/>
       <use x="1339.033203" xlink:href="#DejaVuSans-101"/>
       <use x="1400.556641" xlink:href="#DejaVuSans-114"/>
       <use x="1441.669922" xlink:href="#DejaVuSans-121"/>
       <use x="1500.849609" xlink:href="#DejaVuSans-32"/>
       <use x="1532.636719" xlink:href="#DejaVuSans-112"/>
       <use x="1596.113281" xlink:href="#DejaVuSans-97"/>
       <use x="1657.392578" xlink:href="#DejaVuSans-99"/>
       <use x="1712.373047" xlink:href="#DejaVuSans-107"/>
       <use x="1770.283203" xlink:href="#DejaVuSans-41"/>
      </g>
     </g>
    </g>
    <g id="ytick_9">
     <g id="line2d_17">
      <g>
       <use style="stroke:#000000;stroke-width:0.8;" x="130.46875" xlink:href="#ma2e81ab881" y="223.777118"/>
      </g>
     </g>
     <g id="text_18">
      <!-- BMW i3s -->
      <defs>
       <path d="M 19.671875 34.8125 
L 19.671875 8.109375 
L 35.5 8.109375 
Q 43.453125 8.109375 47.28125 11.40625 
Q 51.125 14.703125 51.125 21.484375 
Q 51.125 28.328125 47.28125 31.5625 
Q 43.453125 34.8125 35.5 34.8125 
z
M 19.671875 64.796875 
L 19.671875 42.828125 
L 34.28125 42.828125 
Q 41.5 42.828125 45.03125 45.53125 
Q 48.578125 48.25 48.578125 53.8125 
Q 48.578125 59.328125 45.03125 62.0625 
Q 41.5 64.796875 34.28125 64.796875 
z
M 9.8125 72.90625 
L 35.015625 72.90625 
Q 46.296875 72.90625 52.390625 68.21875 
Q 58.5 63.53125 58.5 54.890625 
Q 58.5 48.1875 55.375 44.234375 
Q 52.25 40.28125 46.1875 39.3125 
Q 53.46875 37.75 57.5 32.78125 
Q 61.53125 27.828125 61.53125 20.40625 
Q 61.53125 10.640625 54.890625 5.3125 
Q 48.25 0 35.984375 0 
L 9.8125 0 
z
" id="DejaVuSans-66"/>
       <path d="M 9.8125 72.90625 
L 24.515625 72.90625 
L 43.109375 23.296875 
L 61.8125 72.90625 
L 76.515625 72.90625 
L 76.515625 0 
L 66.890625 0 
L 66.890625 64.015625 
L 48.09375 14.015625 
L 38.1875 14.015625 
L 19.390625 64.015625 
L 19.390625 0 
L 9.8125 0 
z
" id="DejaVuSans-77"/>
      </defs>
      <g transform="translate(102.016406 225.676728)scale(0.05 -0.05)">
       <use xlink:href="#DejaVuSans-66"/>
       <use x="68.603516" xlink:href="#DejaVuSans-77"/>
       <use x="154.882812" xlink:href="#DejaVuSans-87"/>
       <use x="253.759766" xlink:href="#DejaVuSans-32"/>
       <use x="285.546875" xlink:href="#DejaVuSans-105"/>
       <use x="313.330078" xlink:href="#DejaVuSans-51"/>
       <use x="376.953125" xlink:href="#DejaVuSans-115"/>
      </g>
     </g>
    </g>
    <g id="ytick_10">
     <g id="line2d_18">
      <g>
       <use style="stroke:#000000;stroke-width:0.8;" x="130.46875" xlink:href="#ma2e81ab881" y="215.782836"/>
      </g>
     </g>
     <g id="text_19">
      <!-- BMW i3 -->
      <g transform="translate(104.621094 217.682445)scale(0.05 -0.05)">
       <use xlink:href="#DejaVuSans-66"/>
       <use x="68.603516" xlink:href="#DejaVuSans-77"/>
       <use x="154.882812" xlink:href="#DejaVuSans-87"/>
       <use x="253.759766" xlink:href="#DejaVuSans-32"/>
       <use x="285.546875" xlink:href="#DejaVuSans-105"/>
       <use x="313.330078" xlink:href="#DejaVuSans-51"/>
      </g>
     </g>
    </g>
    <g id="ytick_11">
     <g id="line2d_19">
      <g>
       <use style="stroke:#000000;stroke-width:0.8;" x="130.46875" xlink:href="#ma2e81ab881" y="207.788553"/>
      </g>
     </g>
     <g id="text_20">
      <!-- BYD e6 -->
      <defs>
       <path d="M -0.203125 72.90625 
L 10.40625 72.90625 
L 30.609375 42.921875 
L 50.6875 72.90625 
L 61.28125 72.90625 
L 35.5 34.71875 
L 35.5 0 
L 25.59375 0 
L 25.59375 34.71875 
z
" id="DejaVuSans-89"/>
       <path d="M 19.671875 64.796875 
L 19.671875 8.109375 
L 31.59375 8.109375 
Q 46.6875 8.109375 53.6875 14.9375 
Q 60.6875 21.78125 60.6875 36.53125 
Q 60.6875 51.171875 53.6875 57.984375 
Q 46.6875 64.796875 31.59375 64.796875 
z
M 9.8125 72.90625 
L 30.078125 72.90625 
Q 51.265625 72.90625 61.171875 64.09375 
Q 71.09375 55.28125 71.09375 36.53125 
Q 71.09375 17.671875 61.125 8.828125 
Q 51.171875 0 30.078125 0 
L 9.8125 0 
z
" id="DejaVuSans-68"/>
       <path d="M 33.015625 40.375 
Q 26.375 40.375 22.484375 35.828125 
Q 18.609375 31.296875 18.609375 23.390625 
Q 18.609375 15.53125 22.484375 10.953125 
Q 26.375 6.390625 33.015625 6.390625 
Q 39.65625 6.390625 43.53125 10.953125 
Q 47.40625 15.53125 47.40625 23.390625 
Q 47.40625 31.296875 43.53125 35.828125 
Q 39.65625 40.375 33.015625 40.375 
z
M 52.59375 71.296875 
L 52.59375 62.3125 
Q 48.875 64.0625 45.09375 64.984375 
Q 41.3125 65.921875 37.59375 65.921875 
Q 27.828125 65.921875 22.671875 59.328125 
Q 17.53125 52.734375 16.796875 39.40625 
Q 19.671875 43.65625 24.015625 45.921875 
Q 28.375 48.1875 33.59375 48.1875 
Q 44.578125 48.1875 50.953125 41.515625 
Q 57.328125 34.859375 57.328125 23.390625 
Q 57.328125 12.15625 50.6875 5.359375 
Q 44.046875 -1.421875 33.015625 -1.421875 
Q 20.359375 -1.421875 13.671875 8.265625 
Q 6.984375 17.96875 6.984375 36.375 
Q 6.984375 53.65625 15.1875 63.9375 
Q 23.390625 74.21875 37.203125 74.21875 
Q 40.921875 74.21875 44.703125 73.484375 
Q 48.484375 72.75 52.59375 71.296875 
z
" id="DejaVuSans-54"/>
      </defs>
      <g transform="translate(105.291406 209.688163)scale(0.05 -0.05)">
       <use xlink:href="#DejaVuSans-66"/>
       <use x="68.525391" xlink:href="#DejaVuSans-89"/>
       <use x="129.609375" xlink:href="#DejaVuSans-68"/>
       <use x="206.611328" xlink:href="#DejaVuSans-32"/>
       <use x="238.398438" xlink:href="#DejaVuSans-101"/>
       <use x="299.921875" xlink:href="#DejaVuSans-54"/>
      </g>
     </g>
    </g>
    <g id="ytick_12">
     <g id="line2d_20">
      <g>
       <use style="stroke:#000000;stroke-width:0.8;" x="130.46875" xlink:href="#ma2e81ab881" y="199.794271"/>
      </g>
     </g>
     <g id="text_21">
      <!-- Audi e-tron -->
      <defs>
       <path d="M 34.1875 63.1875 
L 20.796875 26.90625 
L 47.609375 26.90625 
z
M 28.609375 72.90625 
L 39.796875 72.90625 
L 67.578125 0 
L 57.328125 0 
L 50.6875 18.703125 
L 17.828125 18.703125 
L 11.1875 0 
L 0.78125 0 
z
" id="DejaVuSans-65"/>
      </defs>
      <g transform="translate(95.604687 201.69388)scale(0.05 -0.05)">
       <use xlink:href="#DejaVuSans-65"/>
       <use x="68.408203" xlink:href="#DejaVuSans-117"/>
       <use x="131.787109" xlink:href="#DejaVuSans-100"/>
       <use x="195.263672" xlink:href="#DejaVuSans-105"/>
       <use x="223.046875" xlink:href="#DejaVuSans-32"/>
       <use x="254.833984" xlink:href="#DejaVuSans-101"/>
       <use x="316.357422" xlink:href="#DejaVuSans-45"/>
       <use x="352.441406" xlink:href="#DejaVuSans-116"/>
       <use x="391.650391" xlink:href="#DejaVuSans-114"/>
       <use x="432.732422" xlink:href="#DejaVuSans-111"/>
       <use x="493.914062" xlink:href="#DejaVuSans-110"/>
      </g>
     </g>
    </g>
    <g id="ytick_13">
     <g id="line2d_21">
      <g>
       <use style="stroke:#000000;stroke-width:0.8;" x="130.46875" xlink:href="#ma2e81ab881" y="191.799989"/>
      </g>
     </g>
     <g id="text_22">
      <!-- Nissan Leaf SV/SL (62 kW-hr battery pack) -->
      <defs>
       <path d="M 25.390625 72.90625 
L 33.6875 72.90625 
L 8.296875 -9.28125 
L 0 -9.28125 
z
" id="DejaVuSans-47"/>
      </defs>
      <g transform="translate(17.176562 193.699598)scale(0.05 -0.05)">
       <use xlink:href="#DejaVuSans-78"/>
       <use x="74.804688" xlink:href="#DejaVuSans-105"/>
       <use x="102.587891" xlink:href="#DejaVuSans-115"/>
       <use x="154.6875" xlink:href="#DejaVuSans-115"/>
       <use x="206.787109" xlink:href="#DejaVuSans-97"/>
       <use x="268.066406" xlink:href="#DejaVuSans-110"/>
       <use x="331.445312" xlink:href="#DejaVuSans-32"/>
       <use x="363.232422" xlink:href="#DejaVuSans-76"/>
       <use x="418.929688" xlink:href="#DejaVuSans-101"/>
       <use x="480.453125" xlink:href="#DejaVuSans-97"/>
       <use x="541.732422" xlink:href="#DejaVuSans-102"/>
       <use x="576.9375" xlink:href="#DejaVuSans-32"/>
       <use x="608.724609" xlink:href="#DejaVuSans-83"/>
       <use x="672.201172" xlink:href="#DejaVuSans-86"/>
       <use x="740.609375" xlink:href="#DejaVuSans-47"/>
       <use x="774.300781" xlink:href="#DejaVuSans-83"/>
       <use x="837.777344" xlink:href="#DejaVuSans-76"/>
       <use x="893.490234" xlink:href="#DejaVuSans-32"/>
       <use x="925.277344" xlink:href="#DejaVuSans-40"/>
       <use x="964.291016" xlink:href="#DejaVuSans-54"/>
       <use x="1027.914062" xlink:href="#DejaVuSans-50"/>
       <use x="1091.537109" xlink:href="#DejaVuSans-32"/>
       <use x="1123.324219" xlink:href="#DejaVuSans-107"/>
       <use x="1181.234375" xlink:href="#DejaVuSans-87"/>
       <use x="1280.048828" xlink:href="#DejaVuSans-45"/>
       <use x="1316.132812" xlink:href="#DejaVuSans-104"/>
       <use x="1379.511719" xlink:href="#DejaVuSans-114"/>
       <use x="1420.625" xlink:href="#DejaVuSans-32"/>
       <use x="1452.412109" xlink:href="#DejaVuSans-98"/>
       <use x="1515.888672" xlink:href="#DejaVuSans-97"/>
       <use x="1577.167969" xlink:href="#DejaVuSans-116"/>
       <use x="1616.376953" xlink:href="#DejaVuSans-116"/>
       <use x="1655.585938" xlink:href="#DejaVuSans-101"/>
       <use x="1717.109375" xlink:href="#DejaVuSans-114"/>
       <use x="1758.222656" xlink:href="#DejaVuSans-121"/>
       <use x="1817.402344" xlink:href="#DejaVuSans-32"/>
       <use x="1849.189453" xlink:href="#DejaVuSans-112"/>
       <use x="1912.666016" xlink:href="#DejaVuSans-97"/>
       <use x="1973.945312" xlink:href="#DejaVuSans-99"/>
       <use x="2028.925781" xlink:href="#DejaVuSans-107"/>
       <use x="2086.835938" xlink:href="#DejaVuSans-41"/>
      </g>
     </g>
    </g>
    <g id="ytick_14">
     <g id="line2d_22">
      <g>
       <use style="stroke:#000000;stroke-width:0.8;" x="130.46875" xlink:href="#ma2e81ab881" y="183.805706"/>
      </g>
     </g>
     <g id="text_23">
      <!-- Tesla Model 3 Standard Range -->
      <defs>
       <path d="M -0.296875 72.90625 
L 61.375 72.90625 
L 61.375 64.59375 
L 35.5 64.59375 
L 35.5 0 
L 25.59375 0 
L 25.59375 64.59375 
L -0.296875 64.59375 
z
" id="DejaVuSans-84"/>
      </defs>
      <g transform="translate(46.952344 185.705315)scale(0.05 -0.05)">
       <use xlink:href="#DejaVuSans-84"/>
       <use x="60.818359" xlink:href="#DejaVuSans-101"/>
       <use x="122.341797" xlink:href="#DejaVuSans-115"/>
       <use x="174.441406" xlink:href="#DejaVuSans-108"/>
       <use x="202.224609" xlink:href="#DejaVuSans-97"/>
       <use x="263.503906" xlink:href="#DejaVuSans-32"/>
       <use x="295.291016" xlink:href="#DejaVuSans-77"/>
       <use x="381.570312" xlink:href="#DejaVuSans-111"/>
       <use x="442.751953" xlink:href="#DejaVuSans-100"/>
       <use x="506.228516" xlink:href="#DejaVuSans-101"/>
       <use x="567.751953" xlink:href="#DejaVuSans-108"/>
       <use x="595.535156" xlink:href="#DejaVuSans-32"/>
       <use x="627.322266" xlink:href="#DejaVuSans-51"/>
       <use x="690.945312" xlink:href="#DejaVuSans-32"/>
       <use x="722.732422" xlink:href="#DejaVuSans-83"/>
       <use x="786.208984" xlink:href="#DejaVuSans-116"/>
       <use x="825.417969" xlink:href="#DejaVuSans-97"/>
       <use x="886.697266" xlink:href="#DejaVuSans-110"/>
       <use x="950.076172" xlink:href="#DejaVuSans-100"/>
       <use x="1013.552734" xlink:href="#DejaVuSans-97"/>
       <use x="1074.832031" xlink:href="#DejaVuSans-114"/>
       <use x="1115.929688" xlink:href="#DejaVuSans-100"/>
       <use x="1179.40625" xlink:href="#DejaVuSans-32"/>
       <use x="1211.193359" xlink:href="#DejaVuSans-82"/>
       <use x="1280.644531" xlink:href="#DejaVuSans-97"/>
       <use x="1341.923828" xlink:href="#DejaVuSans-110"/>
       <use x="1405.302734" xlink:href="#DejaVuSans-103"/>
       <use x="1468.779297" xlink:href="#DejaVuSans-101"/>
      </g>
     </g>
    </g>
    <g id="ytick_15">
     <g id="line2d_23">
      <g>
       <use style="stroke:#000000;stroke-width:0.8;" x="130.46875" xlink:href="#ma2e81ab881" y="175.811424"/>
      </g>
     </g>
     <g id="text_24">
      <!-- Nissan Leaf (62 kW-hr battery pack) -->
      <g transform="translate(33.004687 177.711033)scale(0.05 -0.05)">
       <use xlink:href="#DejaVuSans-78"/>
       <use x="74.804688" xlink:href="#DejaVuSans-105"/>
       <use x="102.587891" xlink:href="#DejaVuSans-115"/>
       <use x="154.6875" xlink:href="#DejaVuSans-115"/>
       <use x="206.787109" xlink:href="#DejaVuSans-97"/>
       <use x="268.066406" xlink:href="#DejaVuSans-110"/>
       <use x="331.445312" xlink:href="#DejaVuSans-32"/>
       <use x="363.232422" xlink:href="#DejaVuSans-76"/>
       <use x="418.929688" xlink:href="#DejaVuSans-101"/>
       <use x="480.453125" xlink:href="#DejaVuSans-97"/>
       <use x="541.732422" xlink:href="#DejaVuSans-102"/>
       <use x="576.9375" xlink:href="#DejaVuSans-32"/>
       <use x="608.724609" xlink:href="#DejaVuSans-40"/>
       <use x="647.738281" xlink:href="#DejaVuSans-54"/>
       <use x="711.361328" xlink:href="#DejaVuSans-50"/>
       <use x="774.984375" xlink:href="#DejaVuSans-32"/>
       <use x="806.771484" xlink:href="#DejaVuSans-107"/>
       <use x="864.681641" xlink:href="#DejaVuSans-87"/>
       <use x="963.496094" xlink:href="#DejaVuSans-45"/>
       <use x="999.580078" xlink:href="#DejaVuSans-104"/>
       <use x="1062.958984" xlink:href="#DejaVuSans-114"/>
       <use x="1104.072266" xlink:href="#DejaVuSans-32"/>
       <use x="1135.859375" xlink:href="#DejaVuSans-98"/>
       <use x="1199.335938" xlink:href="#DejaVuSans-97"/>
       <use x="1260.615234" xlink:href="#DejaVuSans-116"/>
       <use x="1299.824219" xlink:href="#DejaVuSans-116"/>
       <use x="1339.033203" xlink:href="#DejaVuSans-101"/>
       <use x="1400.556641" xlink:href="#DejaVuSans-114"/>
       <use x="1441.669922" xlink:href="#DejaVuSans-121"/>
       <use x="1500.849609" xlink:href="#DejaVuSans-32"/>
       <use x="1532.636719" xlink:href="#DejaVuSans-112"/>
       <use x="1596.113281" xlink:href="#DejaVuSans-97"/>
       <use x="1657.392578" xlink:href="#DejaVuSans-99"/>
       <use x="1712.373047" xlink:href="#DejaVuSans-107"/>
       <use x="1770.283203" xlink:href="#DejaVuSans-41"/>
      </g>
     </g>
    </g>
    <g id="ytick_16">
     <g id="line2d_24">
      <g>
       <use style="stroke:#000000;stroke-width:0.8;" x="130.46875" xlink:href="#ma2e81ab881" y="167.817141"/>
      </g>
     </g>
     <g id="text_25">
      <!-- Jaguar I-Pace -->
      <defs>
       <path d="M 9.8125 72.90625 
L 19.671875 72.90625 
L 19.671875 5.078125 
Q 19.671875 -8.109375 14.671875 -14.0625 
Q 9.671875 -20.015625 -1.421875 -20.015625 
L -5.171875 -20.015625 
L -5.171875 -11.71875 
L -2.09375 -11.71875 
Q 4.4375 -11.71875 7.125 -8.046875 
Q 9.8125 -4.390625 9.8125 5.078125 
z
" id="DejaVuSans-74"/>
       <path d="M 19.671875 64.796875 
L 19.671875 37.40625 
L 32.078125 37.40625 
Q 38.96875 37.40625 42.71875 40.96875 
Q 46.484375 44.53125 46.484375 51.125 
Q 46.484375 57.671875 42.71875 61.234375 
Q 38.96875 64.796875 32.078125 64.796875 
z
M 9.8125 72.90625 
L 32.078125 72.90625 
Q 44.34375 72.90625 50.609375 67.359375 
Q 56.890625 61.8125 56.890625 51.125 
Q 56.890625 40.328125 50.609375 34.8125 
Q 44.34375 29.296875 32.078125 29.296875 
L 19.671875 29.296875 
L 19.671875 0 
L 9.8125 0 
z
" id="DejaVuSans-80"/>
      </defs>
      <g transform="translate(90.697656 169.716751)scale(0.05 -0.05)">
       <use xlink:href="#DejaVuSans-74"/>
       <use x="29.492188" xlink:href="#DejaVuSans-97"/>
       <use x="90.771484" xlink:href="#DejaVuSans-103"/>
       <use x="154.248047" xlink:href="#DejaVuSans-117"/>
       <use x="217.626953" xlink:href="#DejaVuSans-97"/>
       <use x="278.90625" xlink:href="#DejaVuSans-114"/>
       <use x="320.019531" xlink:href="#DejaVuSans-32"/>
       <use x="351.806641" xlink:href="#DejaVuSans-73"/>
       <use x="381.298828" xlink:href="#DejaVuSans-45"/>
       <use x="417.382812" xlink:href="#DejaVuSans-80"/>
       <use x="477.623047" xlink:href="#DejaVuSans-97"/>
       <use x="538.902344" xlink:href="#DejaVuSans-99"/>
       <use x="593.882812" xlink:href="#DejaVuSans-101"/>
      </g>
     </g>
    </g>
    <g id="ytick_17">
     <g id="line2d_25">
      <g>
       <use style="stroke:#000000;stroke-width:0.8;" x="130.46875" xlink:href="#ma2e81ab881" y="159.822859"/>
      </g>
     </g>
     <g id="text_26">
      <!-- Chevrolet Bolt EV -->
      <g transform="translate(79.636719 161.722468)scale(0.05 -0.05)">
       <use xlink:href="#DejaVuSans-67"/>
       <use x="69.824219" xlink:href="#DejaVuSans-104"/>
       <use x="133.203125" xlink:href="#DejaVuSans-101"/>
       <use x="194.726562" xlink:href="#DejaVuSans-118"/>
       <use x="253.90625" xlink:href="#DejaVuSans-114"/>
       <use x="294.988281" xlink:href="#DejaVuSans-111"/>
       <use x="356.169922" xlink:href="#DejaVuSans-108"/>
       <use x="383.953125" xlink:href="#DejaVuSans-101"/>
       <use x="445.476562" xlink:href="#DejaVuSans-116"/>
       <use x="484.685547" xlink:href="#DejaVuSans-32"/>
       <use x="516.472656" xlink:href="#DejaVuSans-66"/>
       <use x="585.076172" xlink:href="#DejaVuSans-111"/>
       <use x="646.257812" xlink:href="#DejaVuSans-108"/>
       <use x="674.041016" xlink:href="#DejaVuSans-116"/>
       <use x="713.25" xlink:href="#DejaVuSans-32"/>
       <use x="745.037109" xlink:href="#DejaVuSans-69"/>
       <use x="808.220703" xlink:href="#DejaVuSans-86"/>
      </g>
     </g>
    </g>
    <g id="ytick_18">
     <g id="line2d_26">
      <g>
       <use style="stroke:#000000;stroke-width:0.8;" x="130.46875" xlink:href="#ma2e81ab881" y="151.828576"/>
      </g>
     </g>
     <g id="text_27">
      <!-- Kia Niro Electric -->
      <g transform="translate(83.7875 153.728186)scale(0.05 -0.05)">
       <use xlink:href="#DejaVuSans-75"/>
       <use x="65.576172" xlink:href="#DejaVuSans-105"/>
       <use x="93.359375" xlink:href="#DejaVuSans-97"/>
       <use x="154.638672" xlink:href="#DejaVuSans-32"/>
       <use x="186.425781" xlink:href="#DejaVuSans-78"/>
       <use x="261.230469" xlink:href="#DejaVuSans-105"/>
       <use x="289.013672" xlink:href="#DejaVuSans-114"/>
       <use x="330.095703" xlink:href="#DejaVuSans-111"/>
       <use x="391.277344" xlink:href="#DejaVuSans-32"/>
       <use x="423.064453" xlink:href="#DejaVuSans-69"/>
       <use x="486.248047" xlink:href="#DejaVuSans-108"/>
       <use x="514.03125" xlink:href="#DejaVuSans-101"/>
       <use x="575.554688" xlink:href="#DejaVuSans-99"/>
       <use x="630.535156" xlink:href="#DejaVuSans-116"/>
       <use x="669.744141" xlink:href="#DejaVuSans-114"/>
       <use x="710.857422" xlink:href="#DejaVuSans-105"/>
       <use x="738.640625" xlink:href="#DejaVuSans-99"/>
      </g>
     </g>
    </g>
    <g id="ytick_19">
     <g id="line2d_27">
      <g>
       <use style="stroke:#000000;stroke-width:0.8;" x="130.46875" xlink:href="#ma2e81ab881" y="143.834294"/>
      </g>
     </g>
     <g id="text_28">
      <!-- Tesla Model 3 Standard Range Plus -->
      <g transform="translate(35.185937 145.733903)scale(0.05 -0.05)">
       <use xlink:href="#DejaVuSans-84"/>
       <use x="60.818359" xlink:href="#DejaVuSans-101"/>
       <use x="122.341797" xlink:href="#DejaVuSans-115"/>
       <use x="174.441406" xlink:href="#DejaVuSans-108"/>
       <use x="202.224609" xlink:href="#DejaVuSans-97"/>
       <use x="263.503906" xlink:href="#DejaVuSans-32"/>
       <use x="295.291016" xlink:href="#DejaVuSans-77"/>
       <use x="381.570312" xlink:href="#DejaVuSans-111"/>
       <use x="442.751953" xlink:href="#DejaVuSans-100"/>
       <use x="506.228516" xlink:href="#DejaVuSans-101"/>
       <use x="567.751953" xlink:href="#DejaVuSans-108"/>
       <use x="595.535156" xlink:href="#DejaVuSans-32"/>
       <use x="627.322266" xlink:href="#DejaVuSans-51"/>
       <use x="690.945312" xlink:href="#DejaVuSans-32"/>
       <use x="722.732422" xlink:href="#DejaVuSans-83"/>
       <use x="786.208984" xlink:href="#DejaVuSans-116"/>
       <use x="825.417969" xlink:href="#DejaVuSans-97"/>
       <use x="886.697266" xlink:href="#DejaVuSans-110"/>
       <use x="950.076172" xlink:href="#DejaVuSans-100"/>
       <use x="1013.552734" xlink:href="#DejaVuSans-97"/>
       <use x="1074.832031" xlink:href="#DejaVuSans-114"/>
       <use x="1115.929688" xlink:href="#DejaVuSans-100"/>
       <use x="1179.40625" xlink:href="#DejaVuSans-32"/>
       <use x="1211.193359" xlink:href="#DejaVuSans-82"/>
       <use x="1280.644531" xlink:href="#DejaVuSans-97"/>
       <use x="1341.923828" xlink:href="#DejaVuSans-110"/>
       <use x="1405.302734" xlink:href="#DejaVuSans-103"/>
       <use x="1468.779297" xlink:href="#DejaVuSans-101"/>
       <use x="1530.302734" xlink:href="#DejaVuSans-32"/>
       <use x="1562.089844" xlink:href="#DejaVuSans-80"/>
       <use x="1622.392578" xlink:href="#DejaVuSans-108"/>
       <use x="1650.175781" xlink:href="#DejaVuSans-117"/>
       <use x="1713.554688" xlink:href="#DejaVuSans-115"/>
      </g>
     </g>
    </g>
    <g id="ytick_20">
     <g id="line2d_28">
      <g>
       <use style="stroke:#000000;stroke-width:0.8;" x="130.46875" xlink:href="#ma2e81ab881" y="135.840011"/>
      </g>
     </g>
     <g id="text_29">
      <!-- Kia Soul Electric -->
      <g transform="translate(83.239062 137.739621)scale(0.05 -0.05)">
       <use xlink:href="#DejaVuSans-75"/>
       <use x="65.576172" xlink:href="#DejaVuSans-105"/>
       <use x="93.359375" xlink:href="#DejaVuSans-97"/>
       <use x="154.638672" xlink:href="#DejaVuSans-32"/>
       <use x="186.425781" xlink:href="#DejaVuSans-83"/>
       <use x="249.902344" xlink:href="#DejaVuSans-111"/>
       <use x="311.083984" xlink:href="#DejaVuSans-117"/>
       <use x="374.462891" xlink:href="#DejaVuSans-108"/>
       <use x="402.246094" xlink:href="#DejaVuSans-32"/>
       <use x="434.033203" xlink:href="#DejaVuSans-69"/>
       <use x="497.216797" xlink:href="#DejaVuSans-108"/>
       <use x="525" xlink:href="#DejaVuSans-101"/>
       <use x="586.523438" xlink:href="#DejaVuSans-99"/>
       <use x="641.503906" xlink:href="#DejaVuSans-116"/>
       <use x="680.712891" xlink:href="#DejaVuSans-114"/>
       <use x="721.826172" xlink:href="#DejaVuSans-105"/>
       <use x="749.609375" xlink:href="#DejaVuSans-99"/>
      </g>
     </g>
    </g>
    <g id="ytick_21">
     <g id="line2d_29">
      <g>
       <use style="stroke:#000000;stroke-width:0.8;" x="130.46875" xlink:href="#ma2e81ab881" y="127.845729"/>
      </g>
     </g>
     <g id="text_30">
      <!-- Hyundai Kona Electric -->
      <g transform="translate(68.510937 129.745338)scale(0.05 -0.05)">
       <use xlink:href="#DejaVuSans-72"/>
       <use x="75.195312" xlink:href="#DejaVuSans-121"/>
       <use x="134.375" xlink:href="#DejaVuSans-117"/>
       <use x="197.753906" xlink:href="#DejaVuSans-110"/>
       <use x="261.132812" xlink:href="#DejaVuSans-100"/>
       <use x="324.609375" xlink:href="#DejaVuSans-97"/>
       <use x="385.888672" xlink:href="#DejaVuSans-105"/>
       <use x="413.671875" xlink:href="#DejaVuSans-32"/>
       <use x="445.458984" xlink:href="#DejaVuSans-75"/>
       <use x="510.957031" xlink:href="#DejaVuSans-111"/>
       <use x="572.138672" xlink:href="#DejaVuSans-110"/>
       <use x="635.517578" xlink:href="#DejaVuSans-97"/>
       <use x="696.796875" xlink:href="#DejaVuSans-32"/>
       <use x="728.583984" xlink:href="#DejaVuSans-69"/>
       <use x="791.767578" xlink:href="#DejaVuSans-108"/>
       <use x="819.550781" xlink:href="#DejaVuSans-101"/>
       <use x="881.074219" xlink:href="#DejaVuSans-99"/>
       <use x="936.054688" xlink:href="#DejaVuSans-116"/>
       <use x="975.263672" xlink:href="#DejaVuSans-114"/>
       <use x="1016.376953" xlink:href="#DejaVuSans-105"/>
       <use x="1044.160156" xlink:href="#DejaVuSans-99"/>
      </g>
     </g>
    </g>
    <g id="ytick_22">
     <g id="line2d_30">
      <g>
       <use style="stroke:#000000;stroke-width:0.8;" x="130.46875" xlink:href="#ma2e81ab881" y="119.851447"/>
      </g>
     </g>
     <g id="text_31">
      <!-- Tesla Model 3 Mid Range -->
      <g transform="translate(60.909375 121.751056)scale(0.05 -0.05)">
       <use xlink:href="#DejaVuSans-84"/>
       <use x="60.818359" xlink:href="#DejaVuSans-101"/>
       <use x="122.341797" xlink:href="#DejaVuSans-115"/>
       <use x="174.441406" xlink:href="#DejaVuSans-108"/>
       <use x="202.224609" xlink:href="#DejaVuSans-97"/>
       <use x="263.503906" xlink:href="#DejaVuSans-32"/>
       <use x="295.291016" xlink:href="#DejaVuSans-77"/>
       <use x="381.570312" xlink:href="#DejaVuSans-111"/>
       <use x="442.751953" xlink:href="#DejaVuSans-100"/>
       <use x="506.228516" xlink:href="#DejaVuSans-101"/>
       <use x="567.751953" xlink:href="#DejaVuSans-108"/>
       <use x="595.535156" xlink:href="#DejaVuSans-32"/>
       <use x="627.322266" xlink:href="#DejaVuSans-51"/>
       <use x="690.945312" xlink:href="#DejaVuSans-32"/>
       <use x="722.732422" xlink:href="#DejaVuSans-77"/>
       <use x="809.011719" xlink:href="#DejaVuSans-105"/>
       <use x="836.794922" xlink:href="#DejaVuSans-100"/>
       <use x="900.271484" xlink:href="#DejaVuSans-32"/>
       <use x="932.058594" xlink:href="#DejaVuSans-82"/>
       <use x="1001.509766" xlink:href="#DejaVuSans-97"/>
       <use x="1062.789062" xlink:href="#DejaVuSans-110"/>
       <use x="1126.167969" xlink:href="#DejaVuSans-103"/>
       <use x="1189.644531" xlink:href="#DejaVuSans-101"/>
      </g>
     </g>
    </g>
    <g id="ytick_23">
     <g id="line2d_31">
      <g>
       <use style="stroke:#000000;stroke-width:0.8;" x="130.46875" xlink:href="#ma2e81ab881" y="111.857164"/>
      </g>
     </g>
     <g id="text_32">
      <!-- Tesla Model X P100D -->
      <defs>
       <path d="M 6.296875 72.90625 
L 16.890625 72.90625 
L 35.015625 45.796875 
L 53.21875 72.90625 
L 63.8125 72.90625 
L 40.375 37.890625 
L 65.375 0 
L 54.78125 0 
L 34.28125 31 
L 13.625 0 
L 2.984375 0 
L 29 38.921875 
z
" id="DejaVuSans-88"/>
      </defs>
      <g transform="translate(70.679688 113.756773)scale(0.05 -0.05)">
       <use xlink:href="#DejaVuSans-84"/>
       <use x="60.818359" xlink:href="#DejaVuSans-101"/>
       <use x="122.341797" xlink:href="#DejaVuSans-115"/>
       <use x="174.441406" xlink:href="#DejaVuSans-108"/>
       <use x="202.224609" xlink:href="#DejaVuSans-97"/>
       <use x="263.503906" xlink:href="#DejaVuSans-32"/>
       <use x="295.291016" xlink:href="#DejaVuSans-77"/>
       <use x="381.570312" xlink:href="#DejaVuSans-111"/>
       <use x="442.751953" xlink:href="#DejaVuSans-100"/>
       <use x="506.228516" xlink:href="#DejaVuSans-101"/>
       <use x="567.751953" xlink:href="#DejaVuSans-108"/>
       <use x="595.535156" xlink:href="#DejaVuSans-32"/>
       <use x="627.322266" xlink:href="#DejaVuSans-88"/>
       <use x="695.828125" xlink:href="#DejaVuSans-32"/>
       <use x="727.615234" xlink:href="#DejaVuSans-80"/>
       <use x="787.917969" xlink:href="#DejaVuSans-49"/>
       <use x="851.541016" xlink:href="#DejaVuSans-48"/>
       <use x="915.164062" xlink:href="#DejaVuSans-48"/>
       <use x="978.787109" xlink:href="#DejaVuSans-68"/>
      </g>
     </g>
    </g>
    <g id="ytick_24">
     <g id="line2d_32">
      <g>
       <use style="stroke:#000000;stroke-width:0.8;" x="130.46875" xlink:href="#ma2e81ab881" y="103.862882"/>
      </g>
     </g>
     <g id="text_33">
      <!-- Tesla Model X 100D -->
      <g transform="translate(73.694531 105.762491)scale(0.05 -0.05)">
       <use xlink:href="#DejaVuSans-84"/>
       <use x="60.818359" xlink:href="#DejaVuSans-101"/>
       <use x="122.341797" xlink:href="#DejaVuSans-115"/>
       <use x="174.441406" xlink:href="#DejaVuSans-108"/>
       <use x="202.224609" xlink:href="#DejaVuSans-97"/>
       <use x="263.503906" xlink:href="#DejaVuSans-32"/>
       <use x="295.291016" xlink:href="#DejaVuSans-77"/>
       <use x="381.570312" xlink:href="#DejaVuSans-111"/>
       <use x="442.751953" xlink:href="#DejaVuSans-100"/>
       <use x="506.228516" xlink:href="#DejaVuSans-101"/>
       <use x="567.751953" xlink:href="#DejaVuSans-108"/>
       <use x="595.535156" xlink:href="#DejaVuSans-32"/>
       <use x="627.322266" xlink:href="#DejaVuSans-88"/>
       <use x="695.828125" xlink:href="#DejaVuSans-32"/>
       <use x="727.615234" xlink:href="#DejaVuSans-49"/>
       <use x="791.238281" xlink:href="#DejaVuSans-48"/>
       <use x="854.861328" xlink:href="#DejaVuSans-48"/>
       <use x="918.484375" xlink:href="#DejaVuSans-68"/>
      </g>
     </g>
    </g>
    <g id="ytick_25">
     <g id="line2d_33">
      <g>
       <use style="stroke:#000000;stroke-width:0.8;" x="130.46875" xlink:href="#ma2e81ab881" y="95.868599"/>
      </g>
     </g>
     <g id="text_34">
      <!-- Tesla Model 3 Long Range AWD Performance -->
      <g transform="translate(10.263281 97.768209)scale(0.05 -0.05)">
       <use xlink:href="#DejaVuSans-84"/>
       <use x="60.818359" xlink:href="#DejaVuSans-101"/>
       <use x="122.341797" xlink:href="#DejaVuSans-115"/>
       <use x="174.441406" xlink:href="#DejaVuSans-108"/>
       <use x="202.224609" xlink:href="#DejaVuSans-97"/>
       <use x="263.503906" xlink:href="#DejaVuSans-32"/>
       <use x="295.291016" xlink:href="#DejaVuSans-77"/>
       <use x="381.570312" xlink:href="#DejaVuSans-111"/>
       <use x="442.751953" xlink:href="#DejaVuSans-100"/>
       <use x="506.228516" xlink:href="#DejaVuSans-101"/>
       <use x="567.751953" xlink:href="#DejaVuSans-108"/>
       <use x="595.535156" xlink:href="#DejaVuSans-32"/>
       <use x="627.322266" xlink:href="#DejaVuSans-51"/>
       <use x="690.945312" xlink:href="#DejaVuSans-32"/>
       <use x="722.732422" xlink:href="#DejaVuSans-76"/>
       <use x="778.429688" xlink:href="#DejaVuSans-111"/>
       <use x="839.611328" xlink:href="#DejaVuSans-110"/>
       <use x="902.990234" xlink:href="#DejaVuSans-103"/>
       <use x="966.466797" xlink:href="#DejaVuSans-32"/>
       <use x="998.253906" xlink:href="#DejaVuSans-82"/>
       <use x="1067.705078" xlink:href="#DejaVuSans-97"/>
       <use x="1128.984375" xlink:href="#DejaVuSans-110"/>
       <use x="1192.363281" xlink:href="#DejaVuSans-103"/>
       <use x="1255.839844" xlink:href="#DejaVuSans-101"/>
       <use x="1317.363281" xlink:href="#DejaVuSans-32"/>
       <use x="1349.150391" xlink:href="#DejaVuSans-65"/>
       <use x="1417.480469" xlink:href="#DejaVuSans-87"/>
       <use x="1516.357422" xlink:href="#DejaVuSans-68"/>
       <use x="1593.359375" xlink:href="#DejaVuSans-32"/>
       <use x="1625.146484" xlink:href="#DejaVuSans-80"/>
       <use x="1685.402344" xlink:href="#DejaVuSans-101"/>
       <use x="1746.925781" xlink:href="#DejaVuSans-114"/>
       <use x="1788.039062" xlink:href="#DejaVuSans-102"/>
       <use x="1823.244141" xlink:href="#DejaVuSans-111"/>
       <use x="1884.425781" xlink:href="#DejaVuSans-114"/>
       <use x="1925.523438" xlink:href="#DejaVuSans-109"/>
       <use x="2022.935547" xlink:href="#DejaVuSans-97"/>
       <use x="2084.214844" xlink:href="#DejaVuSans-110"/>
       <use x="2147.59375" xlink:href="#DejaVuSans-99"/>
       <use x="2202.574219" xlink:href="#DejaVuSans-101"/>
      </g>
     </g>
    </g>
    <g id="ytick_26">
     <g id="line2d_34">
      <g>
       <use style="stroke:#000000;stroke-width:0.8;" x="130.46875" xlink:href="#ma2e81ab881" y="87.874317"/>
      </g>
     </g>
     <g id="text_35">
      <!-- Tesla Model 3 Long Range AWD -->
      <g transform="translate(43.8 89.773926)scale(0.05 -0.05)">
       <use xlink:href="#DejaVuSans-84"/>
       <use x="60.818359" xlink:href="#DejaVuSans-101"/>
       <use x="122.341797" xlink:href="#DejaVuSans-115"/>
       <use x="174.441406" xlink:href="#DejaVuSans-108"/>
       <use x="202.224609" xlink:href="#DejaVuSans-97"/>
       <use x="263.503906" xlink:href="#DejaVuSans-32"/>
       <use x="295.291016" xlink:href="#DejaVuSans-77"/>
       <use x="381.570312" xlink:href="#DejaVuSans-111"/>
       <use x="442.751953" xlink:href="#DejaVuSans-100"/>
       <use x="506.228516" xlink:href="#DejaVuSans-101"/>
       <use x="567.751953" xlink:href="#DejaVuSans-108"/>
       <use x="595.535156" xlink:href="#DejaVuSans-32"/>
       <use x="627.322266" xlink:href="#DejaVuSans-51"/>
       <use x="690.945312" xlink:href="#DejaVuSans-32"/>
       <use x="722.732422" xlink:href="#DejaVuSans-76"/>
       <use x="778.429688" xlink:href="#DejaVuSans-111"/>
       <use x="839.611328" xlink:href="#DejaVuSans-110"/>
       <use x="902.990234" xlink:href="#DejaVuSans-103"/>
       <use x="966.466797" xlink:href="#DejaVuSans-32"/>
       <use x="998.253906" xlink:href="#DejaVuSans-82"/>
       <use x="1067.705078" xlink:href="#DejaVuSans-97"/>
       <use x="1128.984375" xlink:href="#DejaVuSans-110"/>
       <use x="1192.363281" xlink:href="#DejaVuSans-103"/>
       <use x="1255.839844" xlink:href="#DejaVuSans-101"/>
       <use x="1317.363281" xlink:href="#DejaVuSans-32"/>
       <use x="1349.150391" xlink:href="#DejaVuSans-65"/>
       <use x="1417.480469" xlink:href="#DejaVuSans-87"/>
       <use x="1516.357422" xlink:href="#DejaVuSans-68"/>
      </g>
     </g>
    </g>
    <g id="ytick_27">
     <g id="line2d_35">
      <g>
       <use style="stroke:#000000;stroke-width:0.8;" x="130.46875" xlink:href="#ma2e81ab881" y="79.880034"/>
      </g>
     </g>
     <g id="text_36">
      <!-- Tesla Model 3 Long Range -->
      <g transform="translate(57.599219 81.779644)scale(0.05 -0.05)">
       <use xlink:href="#DejaVuSans-84"/>
       <use x="60.818359" xlink:href="#DejaVuSans-101"/>
       <use x="122.341797" xlink:href="#DejaVuSans-115"/>
       <use x="174.441406" xlink:href="#DejaVuSans-108"/>
       <use x="202.224609" xlink:href="#DejaVuSans-97"/>
       <use x="263.503906" xlink:href="#DejaVuSans-32"/>
       <use x="295.291016" xlink:href="#DejaVuSans-77"/>
       <use x="381.570312" xlink:href="#DejaVuSans-111"/>
       <use x="442.751953" xlink:href="#DejaVuSans-100"/>
       <use x="506.228516" xlink:href="#DejaVuSans-101"/>
       <use x="567.751953" xlink:href="#DejaVuSans-108"/>
       <use x="595.535156" xlink:href="#DejaVuSans-32"/>
       <use x="627.322266" xlink:href="#DejaVuSans-51"/>
       <use x="690.945312" xlink:href="#DejaVuSans-32"/>
       <use x="722.732422" xlink:href="#DejaVuSans-76"/>
       <use x="778.429688" xlink:href="#DejaVuSans-111"/>
       <use x="839.611328" xlink:href="#DejaVuSans-110"/>
       <use x="902.990234" xlink:href="#DejaVuSans-103"/>
       <use x="966.466797" xlink:href="#DejaVuSans-32"/>
       <use x="998.253906" xlink:href="#DejaVuSans-82"/>
       <use x="1067.705078" xlink:href="#DejaVuSans-97"/>
       <use x="1128.984375" xlink:href="#DejaVuSans-110"/>
       <use x="1192.363281" xlink:href="#DejaVuSans-103"/>
       <use x="1255.839844" xlink:href="#DejaVuSans-101"/>
      </g>
     </g>
    </g>
    <g id="ytick_28">
     <g id="line2d_36">
      <g>
       <use style="stroke:#000000;stroke-width:0.8;" x="130.46875" xlink:href="#ma2e81ab881" y="71.885752"/>
      </g>
     </g>
     <g id="text_37">
      <!-- Tesla Model S P100D -->
      <g transform="translate(70.930469 73.785361)scale(0.05 -0.05)">
       <use xlink:href="#DejaVuSans-84"/>
       <use x="60.818359" xlink:href="#DejaVuSans-101"/>
       <use x="122.341797" xlink:href="#DejaVuSans-115"/>
       <use x="174.441406" xlink:href="#DejaVuSans-108"/>
       <use x="202.224609" xlink:href="#DejaVuSans-97"/>
       <use x="263.503906" xlink:href="#DejaVuSans-32"/>
       <use x="295.291016" xlink:href="#DejaVuSans-77"/>
       <use x="381.570312" xlink:href="#DejaVuSans-111"/>
       <use x="442.751953" xlink:href="#DejaVuSans-100"/>
       <use x="506.228516" xlink:href="#DejaVuSans-101"/>
       <use x="567.751953" xlink:href="#DejaVuSans-108"/>
       <use x="595.535156" xlink:href="#DejaVuSans-32"/>
       <use x="627.322266" xlink:href="#DejaVuSans-83"/>
       <use x="690.798828" xlink:href="#DejaVuSans-32"/>
       <use x="722.585938" xlink:href="#DejaVuSans-80"/>
       <use x="782.888672" xlink:href="#DejaVuSans-49"/>
       <use x="846.511719" xlink:href="#DejaVuSans-48"/>
       <use x="910.134766" xlink:href="#DejaVuSans-48"/>
       <use x="973.757812" xlink:href="#DejaVuSans-68"/>
      </g>
     </g>
    </g>
    <g id="ytick_29">
     <g id="line2d_37">
      <g>
       <use style="stroke:#000000;stroke-width:0.8;" x="130.46875" xlink:href="#ma2e81ab881" y="63.891469"/>
      </g>
     </g>
     <g id="text_38">
      <!-- Tesla Model S Performance (21" Wheels) -->
      <defs>
       <path d="M 17.921875 72.90625 
L 17.921875 45.796875 
L 9.625 45.796875 
L 9.625 72.90625 
z
M 36.375 72.90625 
L 36.375 45.796875 
L 28.078125 45.796875 
L 28.078125 72.90625 
z
" id="DejaVuSans-34"/>
      </defs>
      <g transform="translate(21.389844 65.791079)scale(0.05 -0.05)">
       <use xlink:href="#DejaVuSans-84"/>
       <use x="60.818359" xlink:href="#DejaVuSans-101"/>
       <use x="122.341797" xlink:href="#DejaVuSans-115"/>
       <use x="174.441406" xlink:href="#DejaVuSans-108"/>
       <use x="202.224609" xlink:href="#DejaVuSans-97"/>
       <use x="263.503906" xlink:href="#DejaVuSans-32"/>
       <use x="295.291016" xlink:href="#DejaVuSans-77"/>
       <use x="381.570312" xlink:href="#DejaVuSans-111"/>
       <use x="442.751953" xlink:href="#DejaVuSans-100"/>
       <use x="506.228516" xlink:href="#DejaVuSans-101"/>
       <use x="567.751953" xlink:href="#DejaVuSans-108"/>
       <use x="595.535156" xlink:href="#DejaVuSans-32"/>
       <use x="627.322266" xlink:href="#DejaVuSans-83"/>
       <use x="690.798828" xlink:href="#DejaVuSans-32"/>
       <use x="722.585938" xlink:href="#DejaVuSans-80"/>
       <use x="782.841797" xlink:href="#DejaVuSans-101"/>
       <use x="844.365234" xlink:href="#DejaVuSans-114"/>
       <use x="885.478516" xlink:href="#DejaVuSans-102"/>
       <use x="920.683594" xlink:href="#DejaVuSans-111"/>
       <use x="981.865234" xlink:href="#DejaVuSans-114"/>
       <use x="1022.962891" xlink:href="#DejaVuSans-109"/>
       <use x="1120.375" xlink:href="#DejaVuSans-97"/>
       <use x="1181.654297" xlink:href="#DejaVuSans-110"/>
       <use x="1245.033203" xlink:href="#DejaVuSans-99"/>
       <use x="1300.013672" xlink:href="#DejaVuSans-101"/>
       <use x="1361.537109" xlink:href="#DejaVuSans-32"/>
       <use x="1393.324219" xlink:href="#DejaVuSans-40"/>
       <use x="1432.337891" xlink:href="#DejaVuSans-50"/>
       <use x="1495.960938" xlink:href="#DejaVuSans-49"/>
       <use x="1559.583984" xlink:href="#DejaVuSans-34"/>
       <use x="1605.580078" xlink:href="#DejaVuSans-32"/>
       <use x="1637.367188" xlink:href="#DejaVuSans-87"/>
       <use x="1736.244141" xlink:href="#DejaVuSans-104"/>
       <use x="1799.623047" xlink:href="#DejaVuSans-101"/>
       <use x="1861.146484" xlink:href="#DejaVuSans-101"/>
       <use x="1922.669922" xlink:href="#DejaVuSans-108"/>
       <use x="1950.453125" xlink:href="#DejaVuSans-115"/>
       <use x="2002.552734" xlink:href="#DejaVuSans-41"/>
      </g>
     </g>
    </g>
    <g id="ytick_30">
     <g id="line2d_38">
      <g>
       <use style="stroke:#000000;stroke-width:0.8;" x="130.46875" xlink:href="#ma2e81ab881" y="55.897187"/>
      </g>
     </g>
     <g id="text_39">
      <!-- Tesla Model S 100D -->
      <g transform="translate(73.945312 57.796796)scale(0.05 -0.05)">
       <use xlink:href="#DejaVuSans-84"/>
       <use x="60.818359" xlink:href="#DejaVuSans-101"/>
       <use x="122.341797" xlink:href="#DejaVuSans-115"/>
       <use x="174.441406" xlink:href="#DejaVuSans-108"/>
       <use x="202.224609" xlink:href="#DejaVuSans-97"/>
       <use x="263.503906" xlink:href="#DejaVuSans-32"/>
       <use x="295.291016" xlink:href="#DejaVuSans-77"/>
       <use x="381.570312" xlink:href="#DejaVuSans-111"/>
       <use x="442.751953" xlink:href="#DejaVuSans-100"/>
       <use x="506.228516" xlink:href="#DejaVuSans-101"/>
       <use x="567.751953" xlink:href="#DejaVuSans-108"/>
       <use x="595.535156" xlink:href="#DejaVuSans-32"/>
       <use x="627.322266" xlink:href="#DejaVuSans-83"/>
       <use x="690.798828" xlink:href="#DejaVuSans-32"/>
       <use x="722.585938" xlink:href="#DejaVuSans-49"/>
       <use x="786.208984" xlink:href="#DejaVuSans-48"/>
       <use x="849.832031" xlink:href="#DejaVuSans-48"/>
       <use x="913.455078" xlink:href="#DejaVuSans-68"/>
      </g>
     </g>
    </g>
    <g id="ytick_31">
     <g id="line2d_39">
      <g>
       <use style="stroke:#000000;stroke-width:0.8;" x="130.46875" xlink:href="#ma2e81ab881" y="47.902905"/>
      </g>
     </g>
     <g id="text_40">
      <!-- Tesla Model S Performance (19" Wheels) -->
      <defs>
       <path d="M 10.984375 1.515625 
L 10.984375 10.5 
Q 14.703125 8.734375 18.5 7.8125 
Q 22.3125 6.890625 25.984375 6.890625 
Q 35.75 6.890625 40.890625 13.453125 
Q 46.046875 20.015625 46.78125 33.40625 
Q 43.953125 29.203125 39.59375 26.953125 
Q 35.25 24.703125 29.984375 24.703125 
Q 19.046875 24.703125 12.671875 31.3125 
Q 6.296875 37.9375 6.296875 49.421875 
Q 6.296875 60.640625 12.9375 67.421875 
Q 19.578125 74.21875 30.609375 74.21875 
Q 43.265625 74.21875 49.921875 64.515625 
Q 56.59375 54.828125 56.59375 36.375 
Q 56.59375 19.140625 48.40625 8.859375 
Q 40.234375 -1.421875 26.421875 -1.421875 
Q 22.703125 -1.421875 18.890625 -0.6875 
Q 15.09375 0.046875 10.984375 1.515625 
z
M 30.609375 32.421875 
Q 37.25 32.421875 41.125 36.953125 
Q 45.015625 41.5 45.015625 49.421875 
Q 45.015625 57.28125 41.125 61.84375 
Q 37.25 66.40625 30.609375 66.40625 
Q 23.96875 66.40625 20.09375 61.84375 
Q 16.21875 57.28125 16.21875 49.421875 
Q 16.21875 41.5 20.09375 36.953125 
Q 23.96875 32.421875 30.609375 32.421875 
z
" id="DejaVuSans-57"/>
      </defs>
      <g transform="translate(21.389844 49.802514)scale(0.05 -0.05)">
       <use xlink:href="#DejaVuSans-84"/>
       <use x="60.818359" xlink:href="#DejaVuSans-101"/>
       <use x="122.341797" xlink:href="#DejaVuSans-115"/>
       <use x="174.441406" xlink:href="#DejaVuSans-108"/>
       <use x="202.224609" xlink:href="#DejaVuSans-97"/>
       <use x="263.503906" xlink:href="#DejaVuSans-32"/>
       <use x="295.291016" xlink:href="#DejaVuSans-77"/>
       <use x="381.570312" xlink:href="#DejaVuSans-111"/>
       <use x="442.751953" xlink:href="#DejaVuSans-100"/>
       <use x="506.228516" xlink:href="#DejaVuSans-101"/>
       <use x="567.751953" xlink:href="#DejaVuSans-108"/>
       <use x="595.535156" xlink:href="#DejaVuSans-32"/>
       <use x="627.322266" xlink:href="#DejaVuSans-83"/>
       <use x="690.798828" xlink:href="#DejaVuSans-32"/>
       <use x="722.585938" xlink:href="#DejaVuSans-80"/>
       <use x="782.841797" xlink:href="#DejaVuSans-101"/>
       <use x="844.365234" xlink:href="#DejaVuSans-114"/>
       <use x="885.478516" xlink:href="#DejaVuSans-102"/>
       <use x="920.683594" xlink:href="#DejaVuSans-111"/>
       <use x="981.865234" xlink:href="#DejaVuSans-114"/>
       <use x="1022.962891" xlink:href="#DejaVuSans-109"/>
       <use x="1120.375" xlink:href="#DejaVuSans-97"/>
       <use x="1181.654297" xlink:href="#DejaVuSans-110"/>
       <use x="1245.033203" xlink:href="#DejaVuSans-99"/>
       <use x="1300.013672" xlink:href="#DejaVuSans-101"/>
       <use x="1361.537109" xlink:href="#DejaVuSans-32"/>
       <use x="1393.324219" xlink:href="#DejaVuSans-40"/>
       <use x="1432.337891" xlink:href="#DejaVuSans-49"/>
       <use x="1495.960938" xlink:href="#DejaVuSans-57"/>
       <use x="1559.583984" xlink:href="#DejaVuSans-34"/>
       <use x="1605.580078" xlink:href="#DejaVuSans-32"/>
       <use x="1637.367188" xlink:href="#DejaVuSans-87"/>
       <use x="1736.244141" xlink:href="#DejaVuSans-104"/>
       <use x="1799.623047" xlink:href="#DejaVuSans-101"/>
       <use x="1861.146484" xlink:href="#DejaVuSans-101"/>
       <use x="1922.669922" xlink:href="#DejaVuSans-108"/>
       <use x="1950.453125" xlink:href="#DejaVuSans-115"/>
       <use x="2002.552734" xlink:href="#DejaVuSans-41"/>
      </g>
     </g>
    </g>
    <g id="ytick_32">
     <g id="line2d_40">
      <g>
       <use style="stroke:#000000;stroke-width:0.8;" x="130.46875" xlink:href="#ma2e81ab881" y="39.908622"/>
      </g>
     </g>
     <g id="text_41">
      <!-- Tesla Model S Long Range -->
      <g transform="translate(57.60625 41.808231)scale(0.05 -0.05)">
       <use xlink:href="#DejaVuSans-84"/>
       <use x="60.818359" xlink:href="#DejaVuSans-101"/>
       <use x="122.341797" xlink:href="#DejaVuSans-115"/>
       <use x="174.441406" xlink:href="#DejaVuSans-108"/>
       <use x="202.224609" xlink:href="#DejaVuSans-97"/>
       <use x="263.503906" xlink:href="#DejaVuSans-32"/>
       <use x="295.291016" xlink:href="#DejaVuSans-77"/>
       <use x="381.570312" xlink:href="#DejaVuSans-111"/>
       <use x="442.751953" xlink:href="#DejaVuSans-100"/>
       <use x="506.228516" xlink:href="#DejaVuSans-101"/>
       <use x="567.751953" xlink:href="#DejaVuSans-108"/>
       <use x="595.535156" xlink:href="#DejaVuSans-32"/>
       <use x="627.322266" xlink:href="#DejaVuSans-83"/>
       <use x="690.798828" xlink:href="#DejaVuSans-32"/>
       <use x="722.585938" xlink:href="#DejaVuSans-76"/>
       <use x="778.283203" xlink:href="#DejaVuSans-111"/>
       <use x="839.464844" xlink:href="#DejaVuSans-110"/>
       <use x="902.84375" xlink:href="#DejaVuSans-103"/>
       <use x="966.320312" xlink:href="#DejaVuSans-32"/>
       <use x="998.107422" xlink:href="#DejaVuSans-82"/>
       <use x="1067.558594" xlink:href="#DejaVuSans-97"/>
       <use x="1128.837891" xlink:href="#DejaVuSans-110"/>
       <use x="1192.216797" xlink:href="#DejaVuSans-103"/>
       <use x="1255.693359" xlink:href="#DejaVuSans-101"/>
      </g>
     </g>
    </g>
   </g>
   <g id="patch_35">
    <path d="M 130.46875 303.64 
L 130.46875 24 
" style="fill:none;stroke:#000000;stroke-linecap:square;stroke-linejoin:miter;stroke-width:0.8;"/>
   </g>
   <g id="patch_36">
    <path d="M 447.48 303.64 
L 447.48 24 
" style="fill:none;stroke:#000000;stroke-linecap:square;stroke-linejoin:miter;stroke-width:0.8;"/>
   </g>
   <g id="patch_37">
    <path d="M 130.46875 303.64 
L 447.48 303.64 
" style="fill:none;stroke:#000000;stroke-linecap:square;stroke-linejoin:miter;stroke-width:0.8;"/>
   </g>
   <g id="patch_38">
    <path d="M 130.46875 24 
L 447.48 24 
" style="fill:none;stroke:#000000;stroke-linecap:square;stroke-linejoin:miter;stroke-width:0.8;"/>
   </g>
   <g id="text_42">
    <!-- Battery Electric Vehicle Ranges (2019) -->
    <g transform="translate(201.816406 18)scale(0.09 -0.09)">
     <use xlink:href="#DejaVuSans-66"/>
     <use x="68.603516" xlink:href="#DejaVuSans-97"/>
     <use x="129.882812" xlink:href="#DejaVuSans-116"/>
     <use x="169.091797" xlink:href="#DejaVuSans-116"/>
     <use x="208.300781" xlink:href="#DejaVuSans-101"/>
     <use x="269.824219" xlink:href="#DejaVuSans-114"/>
     <use x="310.9375" xlink:href="#DejaVuSans-121"/>
     <use x="370.117188" xlink:href="#DejaVuSans-32"/>
     <use x="401.904297" xlink:href="#DejaVuSans-69"/>
     <use x="465.087891" xlink:href="#DejaVuSans-108"/>
     <use x="492.871094" xlink:href="#DejaVuSans-101"/>
     <use x="554.394531" xlink:href="#DejaVuSans-99"/>
     <use x="609.375" xlink:href="#DejaVuSans-116"/>
     <use x="648.583984" xlink:href="#DejaVuSans-114"/>
     <use x="689.697266" xlink:href="#DejaVuSans-105"/>
     <use x="717.480469" xlink:href="#DejaVuSans-99"/>
     <use x="772.460938" xlink:href="#DejaVuSans-32"/>
     <use x="804.248047" xlink:href="#DejaVuSans-86"/>
     <use x="872.546875" xlink:href="#DejaVuSans-101"/>
     <use x="934.070312" xlink:href="#DejaVuSans-104"/>
     <use x="997.449219" xlink:href="#DejaVuSans-105"/>
     <use x="1025.232422" xlink:href="#DejaVuSans-99"/>
     <use x="1080.212891" xlink:href="#DejaVuSans-108"/>
     <use x="1107.996094" xlink:href="#DejaVuSans-101"/>
     <use x="1169.519531" xlink:href="#DejaVuSans-32"/>
     <use x="1201.306641" xlink:href="#DejaVuSans-82"/>
     <use x="1270.757812" xlink:href="#DejaVuSans-97"/>
     <use x="1332.037109" xlink:href="#DejaVuSans-110"/>
     <use x="1395.416016" xlink:href="#DejaVuSans-103"/>
     <use x="1458.892578" xlink:href="#DejaVuSans-101"/>
     <use x="1520.416016" xlink:href="#DejaVuSans-115"/>
     <use x="1572.515625" xlink:href="#DejaVuSans-32"/>
     <use x="1604.302734" xlink:href="#DejaVuSans-40"/>
     <use x="1643.316406" xlink:href="#DejaVuSans-50"/>
     <use x="1706.939453" xlink:href="#DejaVuSans-48"/>
     <use x="1770.5625" xlink:href="#DejaVuSans-49"/>
     <use x="1834.185547" xlink:href="#DejaVuSans-57"/>
     <use x="1897.808594" xlink:href="#DejaVuSans-41"/>
    </g>
   </g>
  </g>
 </g>
 <defs>
  <clipPath id="p8543bfff39">
   <rect height="279.64" width="317.01125" x="130.46875" y="24"/>
  </clipPath>
 </defs>
</svg>
